<svg xmlns="http://www.w3.org/2000/svg" viewBox="0 0 19.23 14.41"><defs><style>.cls-1{isolation:isolate;}.cls-2,.cls-3{fill:#1b2d36;}.cls-3{opacity:0.5;}.cls-3,.cls-6{mix-blend-mode:multiply;}.cls-4{fill:#263a42;}.cls-5,.cls-7{fill:#dbe4e3;}.cls-6{fill:#5e807a;opacity:0.66;}.cls-7{opacity:0.72;}.cls-8{fill:#fffcdd;}.cls-9{fill:#99918a;opacity:0.48;}.cls-10{fill:#fff;}.cls-11,.cls-12,.cls-14,.cls-15{fill:#566f71;}.cls-11{opacity:0.37;}.cls-11,.cls-12,.cls-13,.cls-15{mix-blend-mode:screen;}.cls-12{opacity:0.69;}.cls-13,.cls-15{opacity:0.29;}</style></defs><g class="cls-1"><g id="Layer_2" data-name="Layer 2"><g id="icons_animals"><path class="cls-2" d="M14.27,5.48c0,.54-.46.8-.61,1.27s.19.84.2,1.29c0,.21-.18.64.1.67a3.48,3.48,0,0,0,.58-.45,1.63,1.63,0,0,0,.64-1.37A1.44,1.44,0,0,0,14.27,5.48Z"/><path class="cls-3" d="M14.54,8.26a1.63,1.63,0,0,0,.64-1.37,1.43,1.43,0,0,0-.78-1.35l-.15,0a3.13,3.13,0,0,1-.5,1,3.84,3.84,0,0,1,.72.13c1.08.57-.43,1.4-.64,2a.15.15,0,0,0,.13.09A3.48,3.48,0,0,0,14.54,8.26Z"/><path class="cls-4" d="M9.56,2.59c-.18-.51-.17-1-.74-1.35-.3-.18-1.38-.18-.91-.8A2.6,2.6,0,0,1,9.45,0,2.45,2.45,0,0,1,11,.55c.19.16.65.52.65.81C11.64,2,9.63,2.29,9.56,2.59Z"/><path class="cls-3" d="M11,.55A2.45,2.45,0,0,0,9.45,0,3.19,3.19,0,0,0,8.06.32c.66,0,1.41-.4,2.07.06.36.25.36.57.61.88a.85.85,0,0,0,.72.35h.07a.33.33,0,0,0,.1-.24C11.63,1.07,11.17.71,11,.55Z"/><path class="cls-2" d="M19.09,3.62c.3-.4-.23-.43-.42-.63s-.28-.53-.49-.78A5.92,5.92,0,0,0,16.87,1,5.27,5.27,0,0,0,13,.74,11.7,11.7,0,0,0,8.92,2.43c-3,2.24-3.93,5.74-4.75,9-.26.57-1.25.14-1.87-.05a5.12,5.12,0,0,0-2.3.25,4.82,4.82,0,0,0,2.7,1.42,2.39,2.39,0,0,0,.6,0,3.54,3.54,0,0,0,.56.86c.38.32.84.15,1.19.48.89-.69,0-1.43.11-2.15A19.23,19.23,0,0,0,7.62,9.58,6.45,6.45,0,0,1,10.26,7.4c1.83-.88,4-1,5.9-1.57,1-.29,2.63-1,3.07-2.11A.71.71,0,0,0,19.09,3.62Z"/><path class="cls-5" d="M10.26,7.4c1.83-.88,4-1,5.9-1.57,1-.29,2.63-1,3.07-2.11a4.07,4.07,0,0,0-1.77-.58c-.88.06-1.81.88-2.69.49-.5-.21-1.13-1.36-1.63-.5-.39.68.38,1.18-.23,1.63a5.58,5.58,0,0,1-.75.34,1,1,0,0,1-.73.23c-.68,0-1,.59-1.56.88-.35.17-.32.18-.69,0a2.68,2.68,0,0,0-.68-.38c-.59-.16-1.13.31-1.49.76S6,7.9,6.33,8.23c.54-.21.94-.85,1.54-.94.81-.11.72.65.71,1.2A6.91,6.91,0,0,1,10.26,7.4Z"/><path class="cls-5" d="M3.38,12.84a3.43,3.43,0,0,1-1.71-.29,3.28,3.28,0,0,1-1.23-.8,3.31,3.31,0,0,1,2.06.09,5.23,5.23,0,0,0,1,.21c.42,0,1.08,0,1.47,0,.15.36-.25.55,0,.87a1.51,1.51,0,0,1,.1,1.21A7.18,7.18,0,0,1,4,13.86C3.67,13.66,3.28,13,3.38,12.84Z"/><path class="cls-6" d="M19.21,3.75a1.81,1.81,0,0,0-.52-.39,2.82,2.82,0,0,0-2.31-.1,8.79,8.79,0,0,1-2.06.7c-.66,0-1.11-.47-1.76-.38A8.32,8.32,0,0,0,7.79,6.12,9.93,9.93,0,0,0,5.2,10.83c-.09.43-.11,1,.22,1.21a20.65,20.65,0,0,0,2.2-2.46A6.45,6.45,0,0,1,10.26,7.4c1.83-.88,4-1,5.9-1.57C17.19,5.54,18.76,4.8,19.21,3.75Z"/><path class="cls-7" d="M12.14,2.7c0-1,1.52-1.62,2.58-1.62.41,0,1.43.19.95.7S14.49,2,14,2.07a2.14,2.14,0,0,0-1,.44C12.77,2.7,12.56,3,12.14,2.7Z"/><path class="cls-4" d="M12.73,3.49c-1.36.13-1,.85-1.89,1.5-.52.36-.69,1.9-.4,2a3.72,3.72,0,0,0,2-1.66C12.88,4.26,13.1,3.94,12.73,3.49Z"/><path d="M14.79,2.34a.45.45,0,0,1,.5.4.45.45,0,0,1-.4.5.45.45,0,1,1-.1-.9Z"/><path class="cls-8" d="M15.09,2.46a.39.39,0,0,1,.12.54.38.38,0,0,1-.54.12.39.39,0,0,1-.13-.54A.39.39,0,0,1,15.09,2.46Z"/><path d="M15.27,2.77a.34.34,0,0,1-.31.37.35.35,0,0,1-.37-.31.33.33,0,0,1,.31-.37A.34.34,0,0,1,15.27,2.77Z"/><path class="cls-9" d="M15.22,2.74a.18.18,0,0,1-.17.2.19.19,0,1,1,0-.37A.18.18,0,0,1,15.22,2.74Z"/><path class="cls-10" d="M14.76,2.68a.12.12,0,0,1-.1.12.12.12,0,0,1-.11-.1.1.1,0,0,1,.1-.11A.12.12,0,0,1,14.76,2.68Z"/><path class="cls-10" d="M15.24,2.94a0,0,0,1,1-.06,0s0,0,0,0S15.24,2.92,15.24,2.94Z"/><path class="cls-6" d="M5.16,12.26a1.42,1.42,0,0,0,.19-.16c-.23-.22-.55.26-.76.39a1.37,1.37,0,0,1-.75.18,3.86,3.86,0,0,0-.94.42,1.79,1.79,0,0,0,.4,0,3.54,3.54,0,0,0,.56.86c.38.32.84.15,1.19.48C5.94,13.72,5.06,13,5.16,12.26Z"/><path class="cls-6" d="M5.16,12.26a1,1,0,0,0,.16-.13c-.37-.16-.68,0-1.1-.08a1.52,1.52,0,0,1-.75-.32,7.18,7.18,0,0,1-1.17-.32,5.12,5.12,0,0,0-2.3.25,4.82,4.82,0,0,0,2.7,1.42,2.39,2.39,0,0,0,.6,0,3.54,3.54,0,0,0,.56.86c.38.32.84.15,1.19.48C5.94,13.72,5.06,13,5.16,12.26Z"/><path class="cls-3" d="M18.46,2.86h.1a6.11,6.11,0,0,0-.38-.65A5.92,5.92,0,0,0,16.87,1a4.17,4.17,0,0,0-1.12-.4,1.16,1.16,0,0,1,.53.64,1.19,1.19,0,0,1-.36,1.18c-.35.42-.59.66.13.65.53,0,1-.22,1.55-.26A7.62,7.62,0,0,1,18.46,2.86Z"/><path class="cls-3" d="M12.74,3.5a3.84,3.84,0,0,1-1,2.23c-.29.35-.66.61-.95.95a.71.71,0,0,0-.15.22,4.27,4.27,0,0,0,1.75-1.61C12.88,4.27,13.1,4,12.74,3.5Z"/><path class="cls-11" d="M4.27,11.86c.47,0,1-2,1.14-2.49S5.7,8,5.2,8.65a5.38,5.38,0,0,0-.55,1.53A4.79,4.79,0,0,0,4.27,11.86Z"/><path class="cls-11" d="M11.89,2.1a6.26,6.26,0,0,0-3,1c-.6.4-2,1.73-1.89,2.57.27.14.7-.24.92-.4A9.38,9.38,0,0,1,9.69,4.26C10.18,4,12.77,2.87,11.89,2.1Z"/><path class="cls-11" d="M3.19,12.84c.55-.21,1.52-.13,1.8-.78-.33-.26-1-.06-1.32,0C3.05,12.11,3,12.26,3.19,12.84Z"/><path class="cls-11" d="M15.15,4.21a4.72,4.72,0,0,1,1.9-.65,6.4,6.4,0,0,1,1.92.2C18.23,2.83,16.21,3.16,15.15,4.21Z"/><path class="cls-11" d="M10.59,1.17A1.94,1.94,0,0,0,9.48.29C9.13.21,8.21.21,8.15.67a2.12,2.12,0,0,1,1.16.61c.12.15,0,.46.3.53S10.18,1.51,10.59,1.17Z"/><path class="cls-11" d="M12,3.77a9.72,9.72,0,0,0-.72.94,5.24,5.24,0,0,0-.65.79c-.11.25-.25,1.22.12,1.21s1-.93,1.11-1.13A1.53,1.53,0,0,0,12,3.77Z"/><path class="cls-12" d="M15.14,2.35s0,0,0,0a.82.82,0,0,1,.2.56.37.37,0,0,1-.56.3s0,0,0,0c.17.19.47,0,.57-.14A.67.67,0,0,0,15.14,2.35Z"/><path class="cls-12" d="M19.2,3.77a3.06,3.06,0,0,0-1.79-.54,5.66,5.66,0,0,0-1.73.65h0a5.08,5.08,0,0,1,1.82-.49c.58,0,1.1.39,1.68.44A0,0,0,0,0,19.2,3.77Z"/><path class="cls-12" d="M12.45,3.67c-.72-.12-.9.81-1.32,1.18-.2.17-.47.22-.58.48a4,4,0,0,0-.12,1.39h0c.06-.28.1-.57.14-.86a.87.87,0,0,1,.28-.7c.11-.08.24-.12.34-.2.47-.4.51-1.12,1.24-1.21C12.48,3.75,12.5,3.68,12.45,3.67Z"/><path class="cls-12" d="M9.25.2c-.5,0-1.4,0-1.45.64h0C8,.24,9,.23,9.5.35a1.71,1.71,0,0,1,1.08.83s.07,0,.06,0C10.56.53,9.81.24,9.25.2Z"/><path class="cls-12" d="M14.74,6.85h0a1,1,0,0,1-.16.84,7.68,7.68,0,0,1-.55.59s0,.05,0,0C14.5,8.06,15.05,7.38,14.74,6.85Z"/><path class="cls-12" d="M13.76,7.05a2.42,2.42,0,0,1,.06-.47h0a.73.73,0,0,0,0,.93s0,0,0,0A4.2,4.2,0,0,1,13.76,7.05Z"/><path class="cls-12" d="M4.57,11.21a.06.06,0,0,0-.06,0c-.11,0-.16.14-.2.22l-.08.17v0a.21.21,0,0,0-.18.13l0,0a.12.12,0,0,0,0,.2.3.3,0,0,0,.35-.19h0c0-.09.09-.19.13-.28A.28.28,0,0,0,4.57,11.21Z"/><path class="cls-12" d="M5,12.12a2.72,2.72,0,0,1-.86.45,1.84,1.84,0,0,0-.85.26s0,0,0,0c.53-.2,1.42-.12,1.73-.71A0,0,0,0,0,5,12.12Z"/><path class="cls-12" d="M19.08,3.31a2.87,2.87,0,0,0-1.9-.37,7,7,0,0,0-1,.31c-.37.14-.75.23-1.11.36,0,0,0,0,0,0,.66,0,1.27-.41,1.93-.48a4.4,4.4,0,0,1,2,.25C19.1,3.42,19.13,3.34,19.08,3.31Z"/><g class="cls-13"><path class="cls-14" d="M16.82,1.33c.26.21.52.42.77.66s.55.49,0,.58-.75.17-1.14.24-.44-.42-.07-.64c.16-.09.42-.1.46-.32S16.53,1.41,16.82,1.33Z"/></g><path class="cls-15" d="M13.84,2.27a.18.18,0,0,0,0,.35A.18.18,0,0,0,13.84,2.27Z"/><path class="cls-15" d="M16,.76a.54.54,0,0,0-.41-.05.06.06,0,0,0-.05.06l0,0a.06.06,0,0,0,0,.08.32.32,0,0,0,.52,0A.09.09,0,0,0,16,.76Z"/><path class="cls-15" d="M14.17,4.52h-.05a.13.13,0,0,0-.09,0,.34.34,0,0,0-.12.06.26.26,0,0,0-.15.09.39.39,0,0,0-.11.27c0,.05,0,.09.1.1h0l.14,0h0a.58.58,0,0,0,.33-.34A.11.11,0,0,0,14.17,4.52Z"/><path class="cls-15" d="M14.81,4.94a.06.06,0,0,0-.11,0V5a.06.06,0,0,0,.12,0A.09.09,0,0,0,14.81,4.94Z"/><path class="cls-15" d="M16.49,4.17a.15.15,0,0,0-.1,0c-.19,0-.48.1-.54.31v0a.19.19,0,0,0,.1.27.45.45,0,0,0,.38-.1.64.64,0,0,0,.23-.33A.14.14,0,0,0,16.49,4.17Z"/><path class="cls-15" d="M15.41,5.21h0s0,0,0,0a.05.05,0,0,0,0,0C15.42,5.32,15.46,5.23,15.41,5.21Z"/><path class="cls-15" d="M17.59,4.35a.25.25,0,0,0-.11-.18.17.17,0,0,0-.15-.09.32.32,0,0,0-.14,0,.33.33,0,0,0-.24.24.33.33,0,0,0,.18.4.22.22,0,0,0,.16,0A.34.34,0,0,0,17.59,4.35Z"/><path class="cls-15" d="M16.75,4.9a.14.14,0,0,0-.22.07.08.08,0,0,0,0,.07l0,0a.13.13,0,0,0,.13.16.15.15,0,0,0,.11-.08l0,0,0,0s0-.06,0,0A.13.13,0,0,0,16.75,4.9Z"/><path class="cls-15" d="M18.16,4.09a.09.09,0,0,0,0,.17A.09.09,0,0,0,18.16,4.09Z"/><path class="cls-15" d="M13.66,5.68a.23.23,0,0,0-.3,0l-.07.07v0a0,0,0,0,0,0,0,.06.06,0,0,0,0,.08.17.17,0,0,0,.22.08h0a.24.24,0,0,0,.18-.16S13.68,5.71,13.66,5.68Z"/><path class="cls-15" d="M14.58,5.87a0,0,0,0,0-.07,0,.09.09,0,0,0,0,.07.07.07,0,0,0,.09.07C14.65,6,14.64,5.89,14.58,5.87Z"/><path class="cls-15" d="M13,5.15a.07.07,0,0,0-.12,0h0a.06.06,0,0,0,.08.08h0A.07.07,0,0,0,13,5.15Z"/><path class="cls-15" d="M9.16,6.63a.12.12,0,0,0-.2,0,.38.38,0,0,0-.21.4c0,.07.05.11.13.1a.34.34,0,0,0,.26-.27A.24.24,0,0,0,9.16,6.63Z"/><path class="cls-15" d="M9.68,7.12a.09.09,0,0,0-.15,0h0c0,.07,0,.12.1.1h0A.09.09,0,0,0,9.68,7.12Z"/><path class="cls-15" d="M13.63,3.92a.18.18,0,0,0-.19.07.12.12,0,0,0,0,.1.17.17,0,0,0,0,.1.08.08,0,0,0,.09.06A.27.27,0,0,0,13.69,4,.09.09,0,0,0,13.63,3.92Z"/><path class="cls-15" d="M10,5a.26.26,0,0,0-.27,0c-.14.06-.39.22-.35.4a.14.14,0,0,0,.21.1h0a.54.54,0,0,0,.44-.3A.18.18,0,0,0,10,5Z"/><path class="cls-15" d="M10.88,4.47l0,0c-.07-.08-.2,0-.11.12l0,0C10.85,4.64,11,4.55,10.88,4.47Z"/><path class="cls-15" d="M8.51,6.34a.21.21,0,0,0-.29,0,.27.27,0,0,0-.11.29A.62.62,0,0,0,8,6.87.11.11,0,0,0,8.2,7a.68.68,0,0,0,.26-.27C8.51,6.59,8.57,6.44,8.51,6.34Z"/><path class="cls-15" d="M8,8.28a.1.1,0,0,0-.13,0h0c-.08,0,0,.2.07.16h0A.09.09,0,0,0,8,8.28Z"/><path class="cls-15" d="M7.18,8.46a.24.24,0,0,0-.3-.11.48.48,0,0,0-.25.39.75.75,0,0,0,0,.16.47.47,0,0,0,0,.37c.21.23.45-.3.51-.43A.46.46,0,0,0,7.18,8.46Z"/><path class="cls-15" d="M7.31,9.13a.08.08,0,0,0-.15,0l0,.05a0,0,0,0,0,0,.05h0c0,.07.09.09.13,0A.12.12,0,0,0,7.31,9.13Z"/><path class="cls-15" d="M7,9.79l0,0a.16.16,0,0,0-.19-.06,1.27,1.27,0,0,0-.53.47.14.14,0,0,0,.11.2.61.61,0,0,0,.42-.17C6.87,10.09,7,9.93,7,9.79Z"/><path class="cls-15" d="M6.13,9.47a.08.08,0,0,0-.1.11.13.13,0,0,0,.06.07l.07,0s0,0,0,0A.08.08,0,0,0,6.13,9.47Z"/><path class="cls-15" d="M5.94,10.76a.12.12,0,0,0-.11,0,.26.26,0,0,0-.16.15.22.22,0,0,0,0,.16.2.2,0,0,0,0,.11s.06.07.1.06A.33.33,0,0,0,5.94,10.76Z"/><path class="cls-15" d="M6.29,6.67a.06.06,0,0,0,0,.11A.06.06,0,1,0,6.29,6.67Z"/><path class="cls-15" d="M6.75,6.07a.1.1,0,0,0,0,.2A.1.1,0,0,0,6.75,6.07Z"/><path class="cls-15" d="M5.9,7.8a.14.14,0,0,0-.23.06A.14.14,0,0,0,5.83,8h0a.07.07,0,0,0,.06,0A.15.15,0,0,0,6,8v0A.21.21,0,0,0,5.9,7.8Z"/><path class="cls-15" d="M3.74,11.88a8.87,8.87,0,0,1-1-.17,7.23,7.23,0,0,0-1-.25,2.44,2.44,0,0,0-1.55.27s0,.1,0,.08a3.74,3.74,0,0,1,2.07-.07,2.75,2.75,0,0,0,1.47.15S3.75,11.88,3.74,11.88Z"/><path class="cls-15" d="M11.39,3.75a8.78,8.78,0,0,0-4.22,3c-1.09,1.27-2.47,3.08-2,4.87h0a5.56,5.56,0,0,1,.68-2.85A11.91,11.91,0,0,1,7.47,6.63a10.79,10.79,0,0,1,3.94-2.84A0,0,0,0,0,11.39,3.75Z"/></g></g></g></svg>