<svg xmlns="http://www.w3.org/2000/svg" xmlns:xlink="http://www.w3.org/1999/xlink" viewBox="0 0 921.64 397.28"><defs><style>.cls-1{mask:url(#mask);filter:url(#luminosity-noclip-3);}.cls-10,.cls-11,.cls-12,.cls-18,.cls-2,.cls-21,.cls-25,.cls-29,.cls-30,.cls-33,.cls-35,.cls-36,.cls-37,.cls-38,.cls-4,.cls-42,.cls-44,.cls-45,.cls-49,.cls-51,.cls-59,.cls-60,.cls-61,.cls-67,.cls-69,.cls-74,.cls-75,.cls-82,.cls-83,.cls-84,.cls-85,.cls-86,.cls-9{mix-blend-mode:multiply;}.cls-2{fill:url(#Áåçûìÿííûé_ãðàäèåíò_4);}.cls-3{mask:url(#mask-2);filter:url(#luminosity-noclip-4);}.cls-4{fill:url(#Áåçûìÿííûé_ãðàäèåíò_4-2);}.cls-5{fill:none;}.cls-6{fill:url(#Áåçûìÿííûé_ãðàäèåíò_693);}.cls-7{isolation:isolate;}.cls-8{fill:url(#Áåçûìÿííûé_ãðàäèåíò_699);}.cls-10,.cls-29,.cls-33,.cls-36,.cls-37,.cls-38,.cls-45,.cls-49,.cls-51,.cls-82,.cls-83,.cls-84,.cls-85,.cls-86,.cls-9{opacity:0.72;}.cls-9{fill:url(#Áåçûìÿííûé_ãðàäèåíò_57);}.cls-10{fill:url(#Áåçûìÿííûé_ãðàäèåíò_57-2);}.cls-11,.cls-18,.cls-21,.cls-30,.cls-59,.cls-60,.cls-75,.cls-76{opacity:0.54;}.cls-11{fill:url(#Áåçûìÿííûé_ãðàäèåíò_57-3);}.cls-12,.cls-61{fill:#70065c;}.cls-12{opacity:0.33;}.cls-13,.cls-14,.cls-15,.cls-16,.cls-17,.cls-22,.cls-26,.cls-27,.cls-28,.cls-53,.cls-54,.cls-55,.cls-62,.cls-63,.cls-64,.cls-65,.cls-73,.cls-78,.cls-79,.cls-80,.cls-87,.cls-88,.cls-89,.cls-90,.cls-91{mix-blend-mode:color-dodge;}.cls-13{fill:url(#Áåçûìÿííûé_ãðàäèåíò_1271);}.cls-14{fill:url(#Áåçûìÿííûé_ãðàäèåíò_1271-2);}.cls-15{fill:url(#Áåçûìÿííûé_ãðàäèåíò_1271-3);}.cls-16,.cls-26,.cls-27,.cls-28,.cls-34,.cls-54,.cls-64,.cls-65,.cls-73,.cls-79,.cls-80,.cls-87,.cls-88,.cls-89,.cls-90,.cls-91{opacity:0.44;}.cls-16{fill:url(#Áåçûìÿííûé_ãðàäèåíò_2);}.cls-17{fill:#efccd4;opacity:0.6;}.cls-18{fill:url(#Áåçûìÿííûé_ãðàäèåíò_294);}.cls-19{fill:#c69787;}.cls-20{fill:url(#Áåçûìÿííûé_ãðàäèåíò_696);}.cls-21{fill:url(#Áåçûìÿííûé_ãðàäèåíò_57-4);}.cls-23{fill:url(#Áåçûìÿííûé_ãðàäèåíò_1271-4);}.cls-24{fill:url(#Áåçûìÿííûé_ãðàäèåíò_1271-5);}.cls-25{opacity:0.47;fill:url(#Áåçûìÿííûé_ãðàäèåíò_294-2);}.cls-26{fill:url(#Áåçûìÿííûé_ãðàäèåíò_1271-6);}.cls-27{fill:url(#Áåçûìÿííûé_ãðàäèåíò_1271-7);}.cls-28{fill:url(#Áåçûìÿííûé_ãðàäèåíò_1271-8);}.cls-29{fill:url(#Áåçûìÿííûé_ãðàäèåíò_294-3);}.cls-30{fill:url(#Áåçûìÿííûé_ãðàäèåíò_1178);}.cls-31{fill:url(#Áåçûìÿííûé_ãðàäèåíò_695);}.cls-32{opacity:0.57;}.cls-33{fill:#b57ace;}.cls-34{mix-blend-mode:screen;fill:url(#Áåçûìÿííûé_ãðàäèåíò_544);}.cls-35{fill:#000074;opacity:0.43;}.cls-36{fill:url(#Áåçûìÿííûé_ãðàäèåíò_1165);}.cls-37{fill:url(#Áåçûìÿííûé_ãðàäèåíò_883);}.cls-38{fill:url(#Áåçûìÿííûé_ãðàäèåíò_883-2);}.cls-39{fill:url(#Áåçûìÿííûé_ãðàäèåíò_693-2);}.cls-40{fill:url(#Áåçûìÿííûé_ãðàäèåíò_695-2);}.cls-41{clip-path:url(#clip-path);}.cls-42,.cls-44,.cls-74{opacity:0.5;}.cls-42{fill:url(#Áåçûìÿííûé_ãðàäèåíò_162);}.cls-43{clip-path:url(#clip-path-2);}.cls-44{fill:url(#Áåçûìÿííûé_ãðàäèåíò_162-2);}.cls-45{fill:url(#Áåçûìÿííûé_ãðàäèåíò_1173);}.cls-46{fill:url(#Áåçûìÿííûé_ãðàäèåíò_132);}.cls-47{fill:#fff;}.cls-48{mask:url(#mask-3);}.cls-49{fill:url(#Áåçûìÿííûé_ãðàäèåíò_294-4);}.cls-50{mask:url(#mask-4);}.cls-51{fill:url(#Áåçûìÿííûé_ãðàäèåíò_294-5);}.cls-52{fill:url(#Áåçûìÿííûé_ãðàäèåíò_132-2);}.cls-53{fill:url(#Áåçûìÿííûé_ãðàäèåíò_33);}.cls-54{fill:url(#Áåçûìÿííûé_ãðàäèåíò_1271-9);}.cls-55{fill:url(#Áåçûìÿííûé_ãðàäèåíò_33-2);}.cls-56{fill:url(#Áåçûìÿííûé_ãðàäèåíò_598);}.cls-57,.cls-77{opacity:0.25;}.cls-57,.cls-58,.cls-76,.cls-77{mix-blend-mode:color-burn;}.cls-57{fill:url(#Áåçûìÿííûé_ãðàäèåíò_38);}.cls-58{opacity:0.53;fill:url(#Áåçûìÿííûé_ãðàäèåíò_38-2);}.cls-59{fill:url(#Áåçûìÿííûé_ãðàäèåíò_57-5);}.cls-60{fill:url(#Áåçûìÿííûé_ãðàäèåíò_57-6);}.cls-61{opacity:0.27;}.cls-62{fill:url(#Áåçûìÿííûé_ãðàäèåíò_451);}.cls-63{fill:url(#Áåçûìÿííûé_ãðàäèåíò_1271-10);}.cls-64{fill:url(#Áåçûìÿííûé_ãðàäèåíò_1271-11);}.cls-65{fill:url(#Áåçûìÿííûé_ãðàäèåíò_1271-12);}.cls-66{fill:#d5a99b;}.cls-67{opacity:0.49;}.cls-68{fill:#d3a28f;}.cls-70{fill:#e1bcaf;}.cls-71{fill:#efccc3;}.cls-72{fill:url(#Áåçûìÿííûé_ãðàäèåíò_598-2);}.cls-73{fill:url(#Áåçûìÿííûé_ãðàäèåíò_445);}.cls-74{fill:url(#Áåçûìÿííûé_ãðàäèåíò_57-7);}.cls-75{fill:url(#Áåçûìÿííûé_ãðàäèåíò_294-6);}.cls-76{fill:url(#Áåçûìÿííûé_ãðàäèåíò_38-3);}.cls-77{fill:url(#Áåçûìÿííûé_ãðàäèåíò_38-4);}.cls-78{fill:url(#Áåçûìÿííûé_ãðàäèåíò_1271-13);}.cls-79{fill:url(#Áåçûìÿííûé_ãðàäèåíò_451-2);}.cls-80{fill:url(#Áåçûìÿííûé_ãðàäèåíò_1271-14);}.cls-81{fill:#305247;}.cls-82{fill:url(#Áåçûìÿííûé_ãðàäèåíò_1170);}.cls-83{fill:url(#Áåçûìÿííûé_ãðàäèåíò_1170-2);}.cls-84{fill:url(#Áåçûìÿííûé_ãðàäèåíò_1170-3);}.cls-85{fill:url(#Áåçûìÿííûé_ãðàäèåíò_1172);}.cls-86{fill:url(#Áåçûìÿííûé_ãðàäèåíò_1173-2);}.cls-87{fill:url(#Áåçûìÿííûé_ãðàäèåíò_451-3);}.cls-88{fill:url(#Áåçûìÿííûé_ãðàäèåíò_1179);}.cls-89{fill:url(#Áåçûìÿííûé_ãðàäèåíò_1179-2);}.cls-90{fill:url(#Áåçûìÿííûé_ãðàäèåíò_1179-3);}.cls-91{fill:url(#Áåçûìÿííûé_ãðàäèåíò_1271-15);}.cls-92{filter:url(#luminosity-noclip-2);}.cls-93{filter:url(#luminosity-noclip);}</style><filter id="luminosity-noclip" x="460.7" y="-8405.47" width="60.05" height="32766" filterUnits="userSpaceOnUse" color-interpolation-filters="sRGB"><feFlood flood-color="#fff" result="bg"/><feBlend in="SourceGraphic" in2="bg"/></filter><mask id="mask" x="460.7" y="-8405.47" width="60.05" height="32766" maskUnits="userSpaceOnUse"><g class="cls-93"/></mask><linearGradient id="Áåçûìÿííûé_ãðàäèåíò_4" x1="347.29" y1="24.96" x2="384.4" y2="-3.13" gradientTransform="translate(116.78 213.08) rotate(-2.87)" gradientUnits="userSpaceOnUse"><stop offset="0" stop-color="#fff"/><stop offset="1" stop-color="gray"/></linearGradient><filter id="luminosity-noclip-2" x="329.89" y="-8405.47" width="106.45" height="32766" filterUnits="userSpaceOnUse" color-interpolation-filters="sRGB"><feFlood flood-color="#fff" result="bg"/><feBlend in="SourceGraphic" in2="bg"/></filter><mask id="mask-2" x="329.89" y="-8405.47" width="106.45" height="32766" maskUnits="userSpaceOnUse"><g class="cls-92"/></mask><linearGradient id="Áåçûìÿííûé_ãðàäèåíò_4-2" x1="385.29" y1="-49.83" x2="188.07" y2="43.81" xlink:href="#Áåçûìÿííûé_ãðàäèåíò_4"/><linearGradient id="Áåçûìÿííûé_ãðàäèåíò_693" x1="274.35" y1="-129.18" x2="273.34" y2="-91.87" gradientTransform="translate(98.45 243.4) rotate(-6.14)" gradientUnits="userSpaceOnUse"><stop offset="0" stop-color="#edff80"/><stop offset="0.13" stop-color="#ecef73"/><stop offset="0.52" stop-color="#e9c350"/><stop offset="0.82" stop-color="#e8a73a"/><stop offset="1" stop-color="#e79d32"/></linearGradient><linearGradient id="Áåçûìÿííûé_ãðàäèåíò_699" x1="-438.66" y1="245.82" x2="-104.92" y2="579.56" gradientTransform="translate(1223.21 321.79) rotate(87.13)" gradientUnits="userSpaceOnUse"><stop offset="0" stop-color="#9ff8cb"/><stop offset="0.9" stop-color="#3d6d59"/></linearGradient><linearGradient id="Áåçûìÿííûé_ãðàäèåíò_57" x1="-192.69" y1="703.8" x2="-192.69" y2="333.05" gradientTransform="translate(1223.21 321.79) rotate(87.13)" gradientUnits="userSpaceOnUse"><stop offset="0" stop-color="#fff"/><stop offset="1" stop-color="#8000a5"/></linearGradient><linearGradient id="Áåçûìÿííûé_ãðàäèåíò_57-2" x1="-134.13" y1="498.9" x2="-134.13" y2="432.15" xlink:href="#Áåçûìÿííûé_ãðàäèåíò_57"/><linearGradient id="Áåçûìÿííûé_ãðàäèåíò_57-3" x1="-160.53" y1="361.2" x2="-160.53" y2="299.74" xlink:href="#Áåçûìÿííûé_ãðàäèåíò_57"/><linearGradient id="Áåçûìÿííûé_ãðàäèåíò_1271" x1="-209.84" y1="576.34" x2="-187" y2="553.5" gradientTransform="translate(1223.21 321.79) rotate(87.13)" gradientUnits="userSpaceOnUse"><stop offset="0"/><stop offset="1" stop-color="#dc6493"/></linearGradient><linearGradient id="Áåçûìÿííûé_ãðàäèåíò_1271-2" x1="-158.14" y1="381.11" x2="-158.14" y2="295.82" xlink:href="#Áåçûìÿííûé_ãðàäèåíò_1271"/><linearGradient id="Áåçûìÿííûé_ãðàäèåíò_1271-3" x1="-131.96" y1="444.61" x2="-63.7" y2="444.61" xlink:href="#Áåçûìÿííûé_ãðàäèåíò_1271"/><linearGradient id="Áåçûìÿííûé_ãðàäèåíò_2" x1="-182.89" y1="521.59" x2="-69.74" y2="235.94" gradientTransform="translate(1223.21 321.79) rotate(87.13)" gradientUnits="userSpaceOnUse"><stop offset="0"/><stop offset="0.1" stop-color="#0b0508"/><stop offset="0.27" stop-color="#2a131c"/><stop offset="0.5" stop-color="#5b293d"/><stop offset="0.77" stop-color="#9e486a"/><stop offset="1" stop-color="#dc6493"/></linearGradient><linearGradient id="Áåçûìÿííûé_ãðàäèåíò_294" x1="352.43" y1="3.33" x2="805.46" y2="3.33" gradientTransform="translate(116.78 213.08) rotate(-2.87)" gradientUnits="userSpaceOnUse"><stop offset="0" stop-color="#8000a5"/><stop offset="1" stop-color="#fff"/></linearGradient><linearGradient id="Áåçûìÿííûé_ãðàäèåíò_696" x1="45.31" y1="-411.63" x2="311.1" y2="-145.84" gradientTransform="matrix(-0.21, 0.98, 0.98, 0.21, 512.84, -93.32)" gradientUnits="userSpaceOnUse"><stop offset="0" stop-color="#9ff8cb"/><stop offset="1" stop-color="#3d6d59"/></linearGradient><linearGradient id="Áåçûìÿííûé_ãðàäèåíò_57-4" x1="340.58" y1="-139.81" x2="340.58" y2="-326.72" gradientTransform="matrix(-0.21, 0.98, 0.98, 0.21, 512.84, -93.32)" xlink:href="#Áåçûìÿííûé_ãðàäèåíò_57"/><linearGradient id="Áåçûìÿííûé_ãðàäèåíò_1271-4" x1="243.41" y1="-160.04" x2="333.74" y2="-160.04" gradientTransform="matrix(-0.21, 0.98, 0.98, 0.21, 512.84, -93.32)" xlink:href="#Áåçûìÿííûé_ãðàäèåíò_1271"/><linearGradient id="Áåçûìÿííûé_ãðàäèåíò_1271-5" x1="278.56" y1="-298.39" x2="387.28" y2="-298.39" gradientTransform="matrix(-0.21, 0.98, 0.98, 0.21, 512.84, -93.32)" xlink:href="#Áåçûìÿííûé_ãðàäèåíò_1271"/><linearGradient id="Áåçûìÿííûé_ãðàäèåíò_294-2" x1="257.44" y1="-168.65" x2="295.5" y2="-130.59" gradientTransform="matrix(-0.21, 0.98, 0.98, 0.21, 512.84, -93.32)" xlink:href="#Áåçûìÿííûé_ãðàäèåíò_294"/><linearGradient id="Áåçûìÿííûé_ãðàäèåíò_1271-6" x1="350" y1="-127.92" x2="350" y2="-1066.71" gradientTransform="matrix(-0.21, 0.98, 0.98, 0.21, 512.84, -93.32)" xlink:href="#Áåçûìÿííûé_ãðàäèåíò_1271"/><linearGradient id="Áåçûìÿííûé_ãðàäèåíò_1271-7" x1="289.45" y1="10.49" x2="289.45" y2="-424.48" gradientTransform="matrix(-0.21, 0.98, 0.98, 0.21, 512.84, -93.32)" xlink:href="#Áåçûìÿííûé_ãðàäèåíò_1271"/><linearGradient id="Áåçûìÿííûé_ãðàäèåíò_1271-8" x1="255.52" y1="-189.45" x2="217.54" y2="-234.08" gradientTransform="matrix(-0.21, 0.98, 0.98, 0.21, 512.84, -93.32)" xlink:href="#Áåçûìÿííûé_ãðàäèåíò_1271"/><linearGradient id="Áåçûìÿííûé_ãðàäèåíò_294-3" x1="-29.45" y1="-2.7" x2="329.98" y2="-2.7" xlink:href="#Áåçûìÿííûé_ãðàäèåíò_294"/><linearGradient id="Áåçûìÿííûé_ãðàäèåíò_1178" x1="-20.83" y1="-28.15" x2="301.32" y2="-28.15" gradientTransform="translate(116.78 213.08) rotate(-2.87)" gradientUnits="userSpaceOnUse"><stop offset="0.34" stop-color="#fff"/><stop offset="1" stop-color="#8000a5"/></linearGradient><linearGradient id="Áåçûìÿííûé_ãðàäèåíò_695" x1="324.89" y1="-172.74" x2="331.71" y2="43.44" gradientTransform="translate(116.78 213.08) rotate(-2.87)" gradientUnits="userSpaceOnUse"><stop offset="0" stop-color="#9ff8cb"/><stop offset="0.1" stop-color="#8fe2b9"/><stop offset="0.3" stop-color="#73bb9a"/><stop offset="0.48" stop-color="#5fa084"/><stop offset="0.64" stop-color="#528f77"/><stop offset="0.76" stop-color="#4e8972"/></linearGradient><linearGradient id="Áåçûìÿííûé_ãðàäèåíò_544" x1="439.96" y1="18.78" x2="439.96" y2="-57.67" gradientTransform="translate(116.78 213.08) rotate(-2.87)" gradientUnits="userSpaceOnUse"><stop offset="0"/><stop offset="0.52" stop-color="#dc6493"/><stop offset="1"/></linearGradient><linearGradient id="Áåçûìÿííûé_ãðàäèåíò_1165" x1="359.94" y1="-153.23" x2="353.32" y2="28.41" gradientTransform="translate(116.78 213.08) rotate(-2.87)" gradientUnits="userSpaceOnUse"><stop offset="0.18" stop-color="#000074"/><stop offset="0.26" stop-color="#13137e"/><stop offset="0.44" stop-color="#449"/><stop offset="0.69" stop-color="#9494c5"/><stop offset="1" stop-color="#fff"/></linearGradient><linearGradient id="Áåçûìÿííûé_ãðàäèåíò_883" x1="283.78" y1="-155" x2="452.5" y2="13.72" gradientTransform="translate(116.78 213.08) rotate(-2.87)" gradientUnits="userSpaceOnUse"><stop offset="0" stop-color="#000074"/><stop offset="0.11" stop-color="#13137e"/><stop offset="0.32" stop-color="#449"/><stop offset="0.62" stop-color="#9494c5"/><stop offset="1" stop-color="#fff"/></linearGradient><linearGradient id="Áåçûìÿííûé_ãðàäèåíò_883-2" x1="231.1" y1="-102.31" x2="399.82" y2="66.41" xlink:href="#Áåçûìÿííûé_ãðàäèåíò_883"/><linearGradient id="Áåçûìÿííûé_ãðàäèåíò_693-2" x1="329.63" y1="-111.03" x2="375.23" y2="-65.43" gradientTransform="translate(116.78 213.08) rotate(-2.87)" xlink:href="#Áåçûìÿííûé_ãðàäèåíò_693"/><linearGradient id="Áåçûìÿííûé_ãðàäèåíò_695-2" x1="243.66" y1="-90.21" x2="244.26" y2="-71.46" xlink:href="#Áåçûìÿííûé_ãðàäèåíò_695"/><clipPath id="clip-path"><path class="cls-5" d="M436.34,94.2c6.79-24.39,37.79-18.53,52.44,2.21s2.09,41.58-24.31,37S433,106.17,436.34,94.2Z"/></clipPath><radialGradient id="Áåçûìÿííûé_ãðàäèåíò_162" cx="-36.06" cy="-87.45" fx="-61.90462746411613" r="39.07" gradientTransform="matrix(0.68, 0.56, -0.43, 0.52, 450.84, 172.84)" gradientUnits="userSpaceOnUse"><stop offset="0" stop-color="#fff"/><stop offset="0.36" stop-color="#fefdfe"/><stop offset="0.49" stop-color="#fbf6f9"/><stop offset="0.58" stop-color="#f5eaf2"/><stop offset="0.65" stop-color="#eedae7"/><stop offset="0.72" stop-color="#e3c4d9"/><stop offset="0.77" stop-color="#d7a8c7"/><stop offset="0.82" stop-color="#c788b2"/><stop offset="0.87" stop-color="#b6629a"/><stop offset="0.91" stop-color="#a33980"/><stop offset="0.94" stop-color="#951c6d"/></radialGradient><clipPath id="clip-path-2"><path class="cls-6" d="M361.2,130.08c5.1-34.16,8.16-50.36,8.16-50.36C344.91,86.69,338.36,125.13,361.2,130.08Z"/></clipPath><radialGradient id="Áåçûìÿííûé_ãðàäèåíò_162-2" cx="-558.28" cy="740.79" fx="-584.1315273119703" r="39.07" gradientTransform="matrix(-0.7, 0, 0, -0.57, -19.24, 528.48)" xlink:href="#Áåçûìÿííûé_ãðàäèåíò_162"/><linearGradient id="Áåçûìÿííûé_ãðàäèåíò_1173" x1="182.89" y1="45.02" x2="254.1" y2="-8.87" gradientTransform="translate(116.78 213.08) rotate(-2.87)" gradientUnits="userSpaceOnUse"><stop offset="0" stop-color="#8000a5"/><stop offset="0.12" stop-color="#8b16ad"/><stop offset="0.36" stop-color="#a850c1"/><stop offset="0.7" stop-color="#d5ace2"/><stop offset="1" stop-color="#fff"/></linearGradient><linearGradient id="Áåçûìÿííûé_ãðàäèåíò_132" x1="351.39" y1="-71.95" x2="351.39" y2="-106.88" gradientTransform="translate(116.78 213.08) rotate(-2.87)" gradientUnits="userSpaceOnUse"><stop offset="0" stop-color="#512d29"/><stop offset="1" stop-color="#371e1e"/></linearGradient><filter id="luminosity-noclip-3" x="460.7" y="184.61" width="60.05" height="28.3" filterUnits="userSpaceOnUse" color-interpolation-filters="sRGB"><feFlood flood-color="#fff" result="bg"/><feBlend in="SourceGraphic" in2="bg"/></filter><mask id="mask-3" x="460.7" y="184.61" width="60.05" height="28.3" maskUnits="userSpaceOnUse"><g class="cls-1"><path class="cls-2" d="M468.71,189.82c-19.57-6.81-2.15-11.09,40,14.54S468.71,189.82,468.71,189.82Z"/></g></mask><linearGradient id="Áåçûìÿííûé_ãðàäèåíò_294-4" x1="347.29" y1="24.96" x2="384.4" y2="-3.13" xlink:href="#Áåçûìÿííûé_ãðàäèåíò_294"/><filter id="luminosity-noclip-4" x="329.89" y="175.9" width="106.45" height="50.97" filterUnits="userSpaceOnUse" color-interpolation-filters="sRGB"><feFlood flood-color="#fff" result="bg"/><feBlend in="SourceGraphic" in2="bg"/></filter><mask id="mask-4" x="329.89" y="175.9" width="106.45" height="50.97" maskUnits="userSpaceOnUse"><g class="cls-3"><path class="cls-4" d="M428.13,191.3c20.06-16.74-1-23.46-16.64-1.38s-65.85,21.33-76.83,19.18.42,17.77.42,17.77l90.1-18.21Z"/></g></mask><linearGradient id="Áåçûìÿííûé_ãðàäèåíò_294-5" x1="385.29" y1="-49.83" x2="188.07" y2="43.81" xlink:href="#Áåçûìÿííûé_ãðàäèåíò_294"/><linearGradient id="Áåçûìÿííûé_ãðàäèåíò_132-2" x1="249.38" y1="-82.99" x2="249.38" y2="-116.52" xlink:href="#Áåçûìÿííûé_ãðàäèåíò_132"/><linearGradient id="Áåçûìÿííûé_ãðàäèåíò_33" x1="351.46" y1="-61.09" x2="351.46" y2="-121.18" gradientTransform="translate(116.78 213.08) rotate(-2.87)" gradientUnits="userSpaceOnUse"><stop offset="0"/><stop offset="0.09" stop-color="#0e0d03"/><stop offset="0.27" stop-color="#322e0d"/><stop offset="0.51" stop-color="#6c631c"/><stop offset="0.8" stop-color="#bbac30"/><stop offset="1" stop-color="#f7e33f"/></linearGradient><linearGradient id="Áåçûìÿííûé_ãðàäèåíò_1271-9" x1="337.02" y1="-142.99" x2="217.75" y2="-23.71" gradientTransform="translate(116.78 213.08) rotate(-2.87)" xlink:href="#Áåçûìÿííûé_ãðàäèåíò_1271"/><linearGradient id="Áåçûìÿííûé_ãðàäèåíò_33-2" x1="244.64" y1="-70.65" x2="244.64" y2="-125.65" xlink:href="#Áåçûìÿííûé_ãðàäèåíò_33"/><linearGradient id="Áåçûìÿííûé_ãðàäèåíò_598" x1="538.85" y1="80.34" x2="824.1" y2="365.59" gradientTransform="matrix(-0.58, -0.81, -0.81, 0.58, 1317.62, 588.31)" gradientUnits="userSpaceOnUse"><stop offset="0" stop-color="#9ff8cb"/><stop offset="1" stop-color="#4e8972"/></linearGradient><linearGradient id="Áåçûìÿííûé_ãðàäèåíò_38" x1="708.41" y1="506.6" x2="708.41" y2="71.72" gradientTransform="matrix(-0.58, -0.81, -0.81, 0.58, 1317.62, 588.31)" gradientUnits="userSpaceOnUse"><stop offset="0" stop-color="#cf378b"/><stop offset="1" stop-color="#e5a2a3"/></linearGradient><linearGradient id="Áåçûìÿííûé_ãðàäèåíò_38-2" x1="760.62" y1="509.01" x2="760.62" y2="92.52" xlink:href="#Áåçûìÿííûé_ãðàäèåíò_38"/><linearGradient id="Áåçûìÿííûé_ãðàäèåíò_57-5" x1="793.64" y1="284.16" x2="793.64" y2="163.23" gradientTransform="matrix(-0.58, -0.81, -0.81, 0.58, 1317.62, 588.31)" xlink:href="#Áåçûìÿííûé_ãðàäèåíò_57"/><linearGradient id="Áåçûìÿííûé_ãðàäèåíò_57-6" x1="745.18" y1="440.1" x2="745.18" y2="102.35" gradientTransform="matrix(-0.58, -0.81, -0.81, 0.58, 1317.62, 588.31)" xlink:href="#Áåçûìÿííûé_ãðàäèåíò_57"/><linearGradient id="Áåçûìÿííûé_ãðàäèåíò_451" x1="665.09" y1="276.33" x2="749.78" y2="335.54" gradientTransform="matrix(-0.58, -0.81, -0.81, 0.58, 1317.62, 588.31)" gradientUnits="userSpaceOnUse"><stop offset="0" stop-color="#dc6493"/><stop offset="1"/></linearGradient><linearGradient id="Áåçûìÿííûé_ãðàäèåíò_1271-10" x1="720.72" y1="180.3" x2="858.95" y2="180.3" gradientTransform="matrix(-0.58, -0.81, -0.81, 0.58, 1317.62, 588.31)" xlink:href="#Áåçûìÿííûé_ãðàäèåíò_1271"/><linearGradient id="Áåçûìÿííûé_ãðàäèåíò_1271-11" x1="761.28" y1="279.95" x2="930.42" y2="-15.77" gradientTransform="matrix(-0.58, -0.81, -0.81, 0.58, 1317.62, 588.31)" xlink:href="#Áåçûìÿííûé_ãðàäèåíò_1271"/><linearGradient id="Áåçûìÿííûé_ãðàäèåíò_1271-12" x1="730.33" y1="402.07" x2="584.68" y2="175.61" gradientTransform="matrix(-0.58, -0.81, -0.81, 0.58, 1317.62, 588.31)" xlink:href="#Áåçûìÿííûé_ãðàäèåíò_1271"/><linearGradient id="Áåçûìÿííûé_ãðàäèåíò_598-2" x1="-444.82" y1="-330.53" x2="-228.58" y2="-114.3" gradientTransform="matrix(0.36, 0.93, 0.93, -0.36, 449.98, 449.59)" xlink:href="#Áåçûìÿííûé_ãðàäèåíò_598"/><linearGradient id="Áåçûìÿííûé_ãðàäèåíò_445" x1="-275.06" y1="-274.23" x2="-343.98" y2="-535.1" gradientTransform="matrix(0.36, 0.93, 0.93, -0.36, 449.98, 449.59)" gradientUnits="userSpaceOnUse"><stop offset="0"/><stop offset="0.09" stop-color="#1f0e15"/><stop offset="0.27" stop-color="#58283b"/><stop offset="0.44" stop-color="#873d5a"/><stop offset="0.61" stop-color="#ac4e73"/><stop offset="0.76" stop-color="#c65a85"/><stop offset="0.89" stop-color="#d6618f"/><stop offset="1" stop-color="#dc6493"/></linearGradient><linearGradient id="Áåçûìÿííûé_ãðàäèåíò_57-7" x1="-239.99" y1="-129.92" x2="-239.99" y2="-201.31" gradientTransform="matrix(0.36, 0.93, 0.93, -0.36, 449.98, 449.59)" xlink:href="#Áåçûìÿííûé_ãðàäèåíò_57"/><linearGradient id="Áåçûìÿííûé_ãðàäèåíò_294-6" x1="-236.39" y1="-265.03" x2="-236.39" y2="-302.57" gradientTransform="matrix(0.36, 0.93, 0.93, -0.36, 449.98, 449.59)" xlink:href="#Áåçûìÿííûé_ãðàäèåíò_294"/><linearGradient id="Áåçûìÿííûé_ãðàäèåíò_38-3" x1="-288.24" y1="-260.76" x2="-288.24" y2="-663.38" gradientTransform="matrix(0.36, 0.93, 0.93, -0.36, 449.98, 449.59)" xlink:href="#Áåçûìÿííûé_ãðàäèåíò_38"/><linearGradient id="Áåçûìÿííûé_ãðàäèåíò_38-4" x1="181.48" y1="188.13" x2="181.48" y2="-32.28" gradientTransform="translate(116.78 213.08) rotate(-2.87)" xlink:href="#Áåçûìÿííûé_ãðàäèåíò_38"/><linearGradient id="Áåçûìÿííûé_ãðàäèåíò_1271-13" x1="-149.6" y1="-215.56" x2="-333.62" y2="-215.56" gradientTransform="matrix(0.36, 0.93, 0.93, -0.36, 449.98, 449.59)" xlink:href="#Áåçûìÿííûé_ãðàäèåíò_1271"/><linearGradient id="Áåçûìÿííûé_ãðàäèåíò_451-2" x1="-529.07" y1="-396.11" x2="-227.82" y2="-6.3" gradientTransform="matrix(0.36, 0.93, 0.93, -0.36, 449.98, 449.59)" xlink:href="#Áåçûìÿííûé_ãðàäèåíò_451"/><linearGradient id="Áåçûìÿííûé_ãðàäèåíò_1271-14" x1="-301.82" y1="-203.67" x2="154.68" y2="-203.67" gradientTransform="matrix(0.36, 0.93, 0.93, -0.36, 449.98, 449.59)" xlink:href="#Áåçûìÿííûé_ãðàäèåíò_1271"/><linearGradient id="Áåçûìÿííûé_ãðàäèåíò_1170" x1="345.14" y1="-39.68" x2="345.14" y2="-72.87" gradientTransform="translate(116.78 213.08) rotate(-2.87)" gradientUnits="userSpaceOnUse"><stop offset="0" stop-color="#fff"/><stop offset="0.38" stop-color="#9494c5"/><stop offset="0.68" stop-color="#449"/><stop offset="0.89" stop-color="#13137e"/><stop offset="1" stop-color="#000074"/></linearGradient><linearGradient id="Áåçûìÿííûé_ãðàäèåíò_1170-2" x1="309.83" y1="-111.46" x2="309.83" y2="-125.35" xlink:href="#Áåçûìÿííûé_ãðàäèåíò_1170"/><linearGradient id="Áåçûìÿííûé_ãðàäèåíò_1170-3" x1="270.17" y1="-110.21" x2="270.17" y2="-125.94" xlink:href="#Áåçûìÿííûé_ãðàäèåíò_1170"/><linearGradient id="Áåçûìÿííûé_ãðàäèåíò_1172" x1="298.14" y1="-16.65" x2="298.14" y2="-198.48" gradientTransform="translate(116.78 213.08) rotate(-2.87)" gradientUnits="userSpaceOnUse"><stop offset="0" stop-color="#fff"/><stop offset="0.3" stop-color="#d5ace2"/><stop offset="0.64" stop-color="#a850c1"/><stop offset="0.88" stop-color="#8b16ad"/><stop offset="1" stop-color="#8000a5"/></linearGradient><linearGradient id="Áåçûìÿííûé_ãðàäèåíò_1173-2" x1="355.11" y1="90.83" x2="355.11" y2="-171.22" xlink:href="#Áåçûìÿííûé_ãðàäèåíò_1173"/><linearGradient id="Áåçûìÿííûé_ãðàäèåíò_451-3" x1="247.93" y1="-151.63" x2="428.26" y2="-151.63" gradientTransform="translate(116.78 213.08) rotate(-2.87)" xlink:href="#Áåçûìÿííûé_ãðàäèåíò_451"/><linearGradient id="Áåçûìÿííûé_ãðàäèåíò_1179" x1="-62.99" y1="19.45" x2="314.52" y2="19.45" gradientTransform="translate(116.78 213.08) rotate(-2.87)" gradientUnits="userSpaceOnUse"><stop offset="0" stop-color="#dc6493"/><stop offset="0.1" stop-color="#ce5e8a"/><stop offset="0.3" stop-color="#aa4d71"/><stop offset="0.56" stop-color="#6e324a"/><stop offset="0.89" stop-color="#1e0e14"/><stop offset="1"/></linearGradient><linearGradient id="Áåçûìÿííûé_ãðàäèåíò_1179-2" x1="286.26" y1="-13.49" x2="321.7" y2="-13.49" xlink:href="#Áåçûìÿííûé_ãðàäèåíò_1179"/><linearGradient id="Áåçûìÿííûé_ãðàäèåíò_1179-3" x1="329.28" y1="-4.29" x2="369.79" y2="-4.29" xlink:href="#Áåçûìÿííûé_ãðàäèåíò_1179"/><linearGradient id="Áåçûìÿííûé_ãðàäèåíò_1271-15" x1="338.39" y1="-50.59" x2="338.39" y2="-110.71" gradientTransform="translate(116.78 213.08) rotate(-2.87)" xlink:href="#Áåçûìÿííûé_ãðàäèåíò_1271"/></defs><g class="cls-7"><g id="Layer_2" data-name="Layer 2"><g id="ocean"><path class="cls-8" d="M885.93,183.83s-6.27,8.54.88,19.7c7.33,11.46,43.84,1.42,32.75-35.87-9.93-33.41-65.69-32.34-93.4,14.34-27.31,46-37.36,68.61-52.5,55.51S787,96.65,710.28,89.31s-93,187.86-182.77,56.56c0,0-60.5-12.1-58,64.12,0,0,58.18,70.8,131,52S683,128.22,714.62,141.77s-3.72,130.48,48,139.07c60.91,10.11,73.91-114.28,119.8-117.9s27.1,39.45,13.1,38.18S885.93,183.83,885.93,183.83Z"/><path class="cls-9" d="M590.61,222.78c59.64-8.9,20.46-79.33,97.73-129.84-50.56,22.17-73.52,132-129.88,88.25,16.1,13.1-5.16-9,0,0,5,8.78-15.7,59.18-48.37-35.38-9.48,1.42-24.59,27.89-32.92,39.1C488.19,198.75,538.53,230.55,590.61,222.78Z"/><path class="cls-10" d="M762.67,280.84a38.65,38.65,0,0,0,25.55-4.26c-11.72,5.44-24.51,6.6-34.76-4.49-26-28.09-4.6-117.8-38.84-130.32C746.23,155.32,710.9,272.25,762.67,280.84Z"/><path class="cls-11" d="M854.53,182.2c8.17-10.82,17.14-18.41,27.94-19.26,45.89-3.62,27.1,39.45,13.1,38.18a11.1,11.1,0,0,1-7.11-3c11.74,13.08,33.06-3.29,32.81-21.89a49.55,49.55,0,0,0-1.71-8.59C910.8,146.16,878.17,143,854.53,182.2Z"/><path class="cls-12" d="M518.2,239.26c-20.74-29.12-13.8-57.38,22.68-34.79-13.31-11.86-25.1-30.53-33.64-58.15C489.91,149.88,468,163.48,469.52,210c0,0,58.18,70.8,131,52a76.14,76.14,0,0,0,11.22-3.91C581.35,266.2,536,264.29,518.2,239.26Z"/><path class="cls-13" d="M631.46,153.88c17.08-23.44,34.2-51,56.88-60.94-69,45.09-45.22,106-81.73,124.91,20.61-9.45,24.7-29.25,32.5-57.25,6-21.53,28.14-59.56,57.09-70.32C669.51,96.62,650.46,127.79,631.46,153.88Z"/><path class="cls-14" d="M836.12,212.4c6-11,11.94-21.58,18.37-30.12C877.9,143.42,910,146.11,919.24,167a28.92,28.92,0,0,0-4-8.21C895.12,139.71,863.86,151.26,836.12,212.4Z"/><path class="cls-15" d="M788.22,276.58c7.84-4.26,14.73-11.07,21-19.27-13.61,16.12-28.28,26.17-45.58,20.27-11.07-3.77-22.16-19.69-25.54-63.59,1.83,23.38,4.35,46.24,15.33,58.1C763.71,283.18,776.5,282,788.22,276.58Z"/><path class="cls-16" d="M653.7,137.48s47.7-43.22,72.5-18.37,4,129.28,34.34,150.77c21.92,15.53,48.71-12.57,45.47-19.47s-27.42,9.16-35.29-18.48c-.13-.47-.27-.93-.4-1.44l-.06-.23c-.09-.38-.14-.77-.22-1.15-.12-.59-.25-1.16-.36-1.79A70.74,70.74,0,0,1,768.43,215c-1.69-27.63-.24-73.15-18-101.25A51.66,51.66,0,0,0,732,95.9C709.2,84.57,677.87,97.78,653.7,137.48Z"/><path class="cls-17" d="M726.5,118.14c-2.39-.57,4.25,10.18,5.43,7.63S729.36,118.83,726.5,118.14Z"/><path class="cls-17" d="M585.5,209.55c1.79-1.68-10.84-2-9.35.36S583.36,211.56,585.5,209.55Z"/><path class="cls-17" d="M732.2,128.46c1.45.55,2.58-1.77.25-1.8S730.45,127.8,732.2,128.46Z"/><path class="cls-17" d="M800.43,255.81c1.45.55,2.58-1.77.25-1.8S798.68,255.15,800.43,255.81Z"/><path class="cls-18" d="M885.93,183.83s-6.27,8.54.88,19.7c7.33,11.46,43.84,1.42,32.75-35.87-9.93-33.41-65.69-32.34-93.4,14.34-27.31,46-37.36,68.61-52.5,55.51S787,96.65,710.28,89.31s-93,187.86-182.77,56.56c0,0-60.5-12.1-58,64.12,0,0,58.18,70.8,131,52S683,128.22,714.62,141.77s-3.72,130.48,48,139.07c60.91,10.11,73.91-114.28,119.8-117.9s27.1,39.45,13.1,38.18S885.93,183.83,885.93,183.83Z"/><path class="cls-12" d="M357.06,135.92c-2.65-4.08,9.13-9.71,13.33-6.11S359.72,140,357.06,135.92Z"/><path class="cls-19" d="M356,135.27c-2.66-4.08,9.13-9.71,13.32-6.11S358.61,139.36,356,135.27Z"/><path class="cls-20" d="M303.11,75.84s7.41,16.48-8.93,24.1c-12,5.58-26.9,5-25,16.33s28.88,1,39.68-3.94c17.15-7.89,44.44,6.75,37.9,40.8s-71,54.8-108.13,9.52c-31.79-38.78-88.12-63-105-28.53-16.51,33.67,103,98.13,162.91,39.3,79.75-78.33,217.17-79.06,219.35,72.75,0,0-16.07,46.84-64.38,11.85,0,0,10.64-30.9-15-59S354.7,197.06,307,226.57,167.77,247,115,192.74s-3.42-120.15,49-113.94,72.91,35.23,96,63.31,63.39,18.61,59.68.72-32.58,1-52.64-7.76-15.11-37.43,5.25-38.59S301.74,94.58,303.11,75.84Z"/><path class="cls-21" d="M300.59,230.19c-33.7,17.17-84.77,17.58-129.81-.64-31-12.53-50.52-44.36-44.62-77.25,2-11.05,6.64-21,14.67-27.66a29.72,29.72,0,0,0-7.2,9.48c-7.22,14.72,11.57,35.33,40,48.95-22.19-8.5-52.79-32-36-4.34C157,210.54,203.6,231.5,243.5,234.12,271.34,238.64,300.47,230.22,300.59,230.19Z"/><g class="cls-22"><path class="cls-23" d="M292.8,176.75a76.29,76.29,0,0,1-13.06-7.36,85.16,85.16,0,0,0,14.71,5.89c25.26,7.45,45.91-1.49,50-28.82a23.85,23.85,0,0,0,.55-4.37,25.76,25.76,0,0,0,.07-3.45,15.07,15.07,0,0,0-1.84-7c-.11-.3-.16-.59-.28-.88-13.12-32.25-45.41,9.29-70.09,6a27.38,27.38,0,0,1-5.65-1.75c-10.06-4.4-13.83-13.8-12.51-22.23,0,5.83,1.66,15.72,11.89,19.88,14.95,6.08,27.79-3.33,42.26-10.77s24.45-8.48,33.91,2.18a34.25,34.25,0,0,1,4.6,13.38,48.09,48.09,0,0,1-.55,15.62c-1.54,8-6.32,15.28-13.17,21.13-11.39,9.19-26.32,8.77-40.73,2.52Z"/><path class="cls-24" d="M149.06,219c-14.95-12-28.68-31.66-27-56.66,2.16-33,19.94-52,50.86-43.48-13.5-2.86-25.61-1-33.73,7.33-7,6.59-11.16,15.88-13,26.1-5.88,32.79,13.52,64.5,44.31,77.12A171.84,171.84,0,0,1,149.06,219Z"/></g><path class="cls-12" d="M515.89,246.17s-12.49,36.34-48.52,21c1.94-9.39,4.95-28.92,2.16-49.74,4.74,19.42,15.37,54.82,25.51,31.65,12.85-29.36,8.44-85.69-34.59-116.82C492.38,149,515,185.28,515.89,246.17Z"/><path class="cls-12" d="M357.83,142.56c-3.52.43-6.89,1-10.09,1.7a42.31,42.31,0,0,0-.37-6.77q5.63-2.73,11.33-5C349.63,138,348.09,142.79,357.83,142.56Z"/><path class="cls-25" d="M265.17,147.39c23.47,21.44,58.1,12.09,54.64-4.56-3.37-16.27-27.55-2.12-47-6,24.68,3.26,57-38.28,70.09-6a27.78,27.78,0,0,1,2,8.25c1.64,19.4-18.35,31.59-42.39,28.77C289.56,166.29,276,160,265.17,147.39Z"/><path class="cls-26" d="M300.41,230.24c-1.77.5-29.91,8.26-56.82,3.9-40-2.64-86.64-23.6-105.94-55.41-16.8-27.71,13.8-4.16,36,4.34-1.28-.62-2.52-1.26-3.76-1.9.5.27,1,.5,1.54.77.88.44,1.75.89,2.66,1.33C247,219,348.12,190.42,350,202.86A437.47,437.47,0,0,0,307,226.57C304.92,227.88,302.69,229.08,300.41,230.24Z"/><path class="cls-27" d="M401.85,173c-43.21-7.08-53.08-17.91-49.45-24.79l1.18-1.62c24.42-9.95,99.86,6.24,102.72,74.22C450.1,199.84,435.32,178.46,401.85,173Z"/><path class="cls-28" d="M280.37,97.9s-15.22-3.52-22.59,9.48,7.79,27.16,13.92,22.29c3.54-2.83-2-3.25-4.95-10.91C264.24,112.18,270.58,101.27,280.37,97.9Z"/><path class="cls-17" d="M265.89,99.9c1.93-.06-4.37,6.16-5,4.31S263.57,100,265.89,99.9Z"/><path class="cls-17" d="M439.55,173.63c.65,3.73-13.18-6-9.76-8S438.78,169.15,439.55,173.63Z"/><path class="cls-17" d="M246.37,201c-3.85-1.91,18.87-2,17.05.62S251,203.27,246.37,201Z"/><path class="cls-17" d="M260.36,106c-1.2.17-1.85-1.51,0-1.22S261.81,105.76,260.36,106Z"/><path class="cls-29" d="M401.85,173c-70-11.47-52.56-32.78-31.87-31.2,12.58,1,8.62-7.59,3.58-14.45-2.07.61-4.13,1.27-6.2,2l-.94.32c-2,.69-4,1.41-6,2.18-2.23.87-4.38,1.75-6.52,2.68l-.21.1q-3.18,1.4-6.35,2.92a43.55,43.55,0,0,1,.35,7.24c0,.16,0,.32,0,.47-.05,1-.13,2.09-.24,3.17,0,.3-.06.6-.1.9-.15,1.26-.34,2.54-.59,3.86-4.55,23.68-37.12,40.9-69,34a87.05,87.05,0,0,1-24.54,8.38c14.56,9.44,19.94,26.09,40.07,38a94.1,94.1,0,0,0,13.75-7c39-24.11,83.54-46,112.55-37.85.55.15,1.06.32,1.58.49a36,36,0,0,1,8.17,3.81c.25.15.49.32.74.48.89.6,1.75,1.24,2.59,1.92l.83.68a37.14,37.14,0,0,1,3,2.89,68.06,68.06,0,0,1,10.91,15.89c.43.88.83,1.75,1.2,2.62a60.89,60.89,0,0,1,2.74,7.65,59.67,59.67,0,0,1,.16,32.87c1.43,1,2.82,2,4.2,2.88s2.7,1.71,4,2.46C461.75,248,463.94,183.15,401.85,173Z"/><path class="cls-30" d="M303.11,75.84s7.41,16.48-8.93,24.1c-12,5.58-26.9,5-25,16.33s28.88,1,39.68-3.94c17.15-7.89,44.44,6.75,37.9,40.8s-71,54.8-108.13,9.52c-31.79-38.78-88.12-63-105-28.53-16.51,33.67,103,98.13,162.91,39.3,79.75-78.33,217.17-79.06,219.35,72.75,0,0-16.07,46.84-64.38,11.85,0,0,10.64-30.9-15-59S354.7,197.06,307,226.57,167.77,247,115,192.74s-3.42-120.15,49-113.94,72.91,35.23,96,63.31,63.39,18.61,59.68.72-32.58,1-52.64-7.76-15.11-37.43,5.25-38.59S301.74,94.58,303.11,75.84Z"/><path class="cls-31" d="M356.45,163.1c-22.22-8.87-21.65-87.85,35.71-129.3S550.2,36.31,573,65.11s58.55,154.06-54.13,142c0,0,35.92,37.68,78.62,29.63s-37.87,50-135.06,12.23-204,2.52-161.86-15.48C351.19,211.91,356.45,163.1,356.45,163.1Z"/><g class="cls-32"><path class="cls-33" d="M509.44,55.47C512,41.46,566,69,556.29,79S506.67,70.87,509.44,55.47Z"/><path class="cls-33" d="M563.94,115.63c-10.86,10.31-34.77-27.71-26.45-30.76S573.18,106.86,563.94,115.63Z"/><path class="cls-33" d="M580.85,131.94c-9.42.83-15.62-32-5.77-33S590.28,131.12,580.85,131.94Z"/><path class="cls-33" d="M557.9,168.51c-14.66,2-.43-41.37,8.28-41.07S574.72,166.23,557.9,168.51Z"/><path class="cls-33" d="M566.37,96.79c7.31.37-1.89-16.93-8.17-16.18S558.48,96.39,566.37,96.79Z"/><path class="cls-33" d="M552.14,59.72C555,54.59,568,68.9,565.28,72.36S549.52,64.5,552.14,59.72Z"/><path class="cls-33" d="M578.8,150.17c-3.45,1.43-4.55-11.93.47-13.57S584.47,147.82,578.8,150.17Z"/><path class="cls-33" d="M549,138.11c8.44-.94,3.9-22.44-7.6-21.35S540.61,139.05,549,138.11Z"/><path class="cls-33" d="M512.06,39.51c2.07-9.3,19.79,2.93,18.25,7.89S510.52,46.46,512.06,39.51Z"/><path class="cls-33" d="M544.89,185.63c-6.59-6.28,9.11-17.5,14.5-13.22S550.71,191.17,544.89,185.63Z"/><path class="cls-33" d="M526.55,193c-5.81-4.14,10.59-8.9,12.89-5.63S532.36,197.09,526.55,193Z"/><path class="cls-33" d="M544.1,198.11c-6.41-3.42,5.65-9,10.39-6.92S550.51,201.53,544.1,198.11Z"/></g><path class="cls-34" d="M592.47,124.84s15.42,91.95-75.64,77.86C516.83,202.7,593.67,197.08,592.47,124.84Z"/><path class="cls-35" d="M369.36,79.72s-.55,2.9-1.55,8.72C402.64,54.38,448.27,84,448.27,84l25.44,7.76.32-7c-.64-1.13-1-1.82-1-1.82S413.91,45.11,369.36,79.72Z"/><path class="cls-36" d="M356.45,163.1c7.89-56.81,12.91-83.38,12.91-83.38C413.91,45.11,473,83,473,83s15.53,26.14,16.33,42.13S479,143.18,479,143.18c8.41,28.92,22.38,48.19,39.81,63.95,95.28,10.18,84.41-77.8,65-122.63,23.81,57.83-49.75-1-129.72-21.51-71.8-18.46-101.89,17-108.81,43.31q-.94,4.36-1.51,8.6c-.15,1.92-.34,3.54-.55,4.94C341.31,141.72,346.67,159.2,356.45,163.1Z"/><path class="cls-37" d="M538.13,156.84c2.92-36.66-44.51-70-89.29-85.15A128.21,128.21,0,0,1,473,83s15.53,26.14,16.33,42.13S479,143.18,479,143.18c5.21,17.94,12.57,32.16,21.57,44.14C517.46,186.91,536.32,179.53,538.13,156.84Z"/><path class="cls-38" d="M357.35,156.69c7.37-52.39,12-77,12-77C364.21,83.35,331.18,121,357.35,156.69Z"/><path class="cls-35" d="M436,95.87C437.42,74,455,71.29,467.12,80.6s22.22,47.1,22.22,47.1-6,12.68-25.35,10.72S434.42,119,436,95.87Z"/><path class="cls-39" d="M436.34,94.2c6.79-24.39,37.79-18.53,52.44,2.21s2.09,41.58-24.31,37S433,106.17,436.34,94.2Z"/><path class="cls-40" d="M359.7,140.25c1.13-7.72,2.18-14.72,3.13-20.92l-12.54,3.34S349.19,134.79,359.7,140.25Z"/><path class="cls-35" d="M350.29,122.67s2.42,10.68,10.38,11q.72-4.8,1.38-9.17Z"/><g class="cls-41"><path class="cls-42" d="M490.75,129.45c-9.37,11.3-29,10.5-43.8-1.79S427.71,96.25,437.08,85s29-10.49,43.8,1.8S500.12,118.16,490.75,129.45Z"/></g><path class="cls-6" d="M361.2,130.08c5.1-34.16,8.16-50.36,8.16-50.36C344.91,86.69,338.36,125.13,361.2,130.08Z"/><g class="cls-43"><ellipse class="cls-44" cx="369.12" cy="105.96" rx="27.46" ry="22.52" transform="translate(122.9 400.66) rotate(-66.14)"/></g><path class="cls-45" d="M385.69,209.05c-21.05,4.24-36.53-3.62-30.47-39.51a93.67,93.67,0,0,1-30.46,49.24l46.46,6.27Z"/><path class="cls-46" d="M443,95.38c8-17.76,48.52,6.79,40.82,22.15S434.59,114,443,95.38Z"/><path class="cls-47" d="M452.91,96.46c1.65-1.36-4-14.1-7.66-10.82S451.26,97.82,452.91,96.46Z"/><g class="cls-48"><path class="cls-49" d="M468.71,189.82c-19.57-6.81-2.15-11.09,40,14.54S468.71,189.82,468.71,189.82Z"/></g><g class="cls-50"><path class="cls-51" d="M428.13,191.3c20.06-16.74-1-23.46-16.64-1.38s-65.85,21.33-76.83,19.18.42,17.77.42,17.77l90.1-18.21Z"/></g><path class="cls-52" d="M356.64,115a9.64,9.64,0,0,0,6.45,2.65c2.65-17.18,4.56-28.35,5.54-33.86C357.37,88.14,346.22,105.33,356.64,115Z"/><path class="cls-53" d="M468.3,104.12C455,100.85,442.36,106,440,115.51a13.23,13.23,0,0,0-.31,1.85c4.25,7.43,12,13.89,24.78,16.09,9.74,1.67,17.59-.11,22.9-4.07a14.31,14.31,0,0,0,.7-2C490.42,117.78,481.57,107.38,468.3,104.12Z"/><path class="cls-54" d="M367.82,88.44q-1.17,6.75-3.12,18.94c18.63,56.3,69.38,11.09,69.38,11.09a72.57,72.57,0,0,1-1.51-37.9l1.21-3.48C417.5,71.06,390.39,66.36,367.82,88.44Z"/><path class="cls-55" d="M361.2,130.08c1.72-11.51,3.21-21,4.42-28.48a15,15,0,0,0-18.36,11.72C348,121.38,352.46,128.19,361.2,130.08Z"/><path class="cls-19" d="M758.94,69.62c-3.52,4.4-13.81-6.41-11.36-12.31S762.47,65.22,758.94,69.62Z"/><path class="cls-19" d="M850.7,119.65c1.38,3.18-7.09,5.41-9.55,2.34S849.33,116.46,850.7,119.65Z"/><path class="cls-19" d="M863.4,112.38c2.06,1.41-2.58,6.74-5.29,5.9S861.35,111,863.4,112.38Z"/><path class="cls-19" d="M871,101.44c2.38.72-.41,7.2-3.25,7.22S868.64,100.71,871,101.44Z"/><path class="cls-19" d="M874.61,91.48c2.39.72-.41,7.2-3.25,7.23S872.22,90.76,874.61,91.48Z"/><path class="cls-56" d="M854.48,71.78s30.15,5,20.11,37.27S810,143.58,748.42,86.59s-90.46-54-100-37.52,17.83,48.51,41.27,81.18,66.94,115.92-13.56,147.84-217.6-13-217.6-13-32.45-38,10.23-75.29c0,0,102.66,42.28,159.22,35.67s33.21-48.94,11.09-75.91S570.44,54,619.53,14.37,722.68,26,753,61.12s91.09,80.72,113.49,46.7C882.62,83.37,854.48,71.78,854.48,71.78Z"/><path class="cls-57" d="M678.58,249.66c58.52-37.26,28.89-91.24,5.7-126.78q2.7,3.68,5.36,7.37c23.44,32.66,66.94,115.92-13.56,147.84s-217.6-13-217.6-13a56.3,56.3,0,0,1-11.62-28.85C477.85,247.09,607.18,295.12,678.58,249.66Z"/><path class="cls-58" d="M753,61.12c30.36,35.09,91.09,80.72,113.49,46.7,8.89-13.49,4.29-23-1.61-28.93,7.2,6.56,13.82,17.45,3.68,31.88-17.29,24.59-67.67,30.46-116-37.93-42.19-59.7-99-84.86-133.14-58.39C668.62-25.29,722.68,26,753,61.12Z"/><path class="cls-59" d="M648.37,49.07c-3.55,6.11-2,14.35,2.51,24-15.27-30.09,8.66-37.28,4.27-49.52S588.69,17.08,599.5,75c-4.38-21.83-.75-43.81,20-60.6a72.46,72.46,0,0,1,7.08-5c2.51-1,5.07-2,7.72-2.79,47.5-14.76,53.72,31.29,134.54,97a241.68,241.68,0,0,1-20.45-17C686.83,29.59,658,32.59,648.37,49.07Z"/><path class="cls-60" d="M597.26,247.5c52.39,3,63.42-24.83,30.67-22,56.56-6.61,33.21-48.94,11.09-75.91-12.75-15.53-33.54-44.89-39.51-74.57,4,12,13.27,24.79,32.5,35.28C684.64,139,725.83,190,691.2,229.57s-102.75,42.71-243.89-5c1.79-10.82,7.73-22.82,21.4-34.75a680.74,680.74,0,0,0,71.11,23.94C474,198,544.88,244.48,597.26,247.5Z"/><path class="cls-61" d="M619.44,14.45C654.34-13.75,691.63,3.88,721.21,29A154.55,154.55,0,0,0,692,15.79C665.07,1,638.66-.45,619.44,14.45Z"/><path class="cls-62" d="M691.2,229.57C725.83,190,684.64,139,632,110.29c-14.74-8-23.58-17.43-28.74-26.8,8,12.29,20.84,20.65,37.23,29.48,22.73,12.23,59.78,43.27,65.43,75.74S681.19,268,592.65,259.12C641.09,262.76,671.55,252.06,691.2,229.57Z"/><path class="cls-63" d="M658,4.52c26.1.94,54.08,45.19,74.51,63.36,8.37,7.45,19.56,19.43,30.88,31.14C702.67,48.21,686.14,10.11,658,4.53Z"/><path class="cls-64" d="M675.58,126.68c-14.35-7.56-86.52-43.79-68.16-77,17.12-30.95,46.33-31.21,48.23-24a5.78,5.78,0,0,1,0,.72,3,3,0,0,1,0,.94c-.88,10.21-18.37,18.84-4.77,45.65,6.77,14.38,20.21,31.84,33.4,49.84,8.5,13,17.85,28.53,23.42,44.78C701.26,149.91,688,133.22,675.58,126.68Z"/><path class="cls-65" d="M627.93,225.49c19.77-1.7,23.56,7.76,12,14.88-36.75,18.26-98.26-22.9-105.34-27.79,1.65.35,3.39.73,5.26,1.18C569.72,221.93,603.22,228.38,627.93,225.49Z"/><path class="cls-17" d="M598.8,241.79c1.49,1.68-10,.94-8.47-1.11S597,239.78,598.8,241.79Z"/><path class="cls-17" d="M623.75,30c2.24,0-6.06,8-6.53,5.52S621.06,30,623.75,30Z"/><path class="cls-17" d="M588.05,241.62c-1.07-.94.31-2.84,1.34-1S589.33,242.75,588.05,241.62Z"/><path class="cls-12" d="M621.32,278.3c1.23,6.49-20.52,8.07-24.42,1.46S620.09,271.81,621.32,278.3Z"/><path class="cls-66" d="M622.55,279.66c1.23,6.48-20.52,8.07-24.42,1.46S621.32,273.17,622.55,279.66Z"/><g class="cls-67"><path class="cls-68" d="M615.68,281.59c1.87,1.29-7.21,1.93-10.27.65S613.81,280.3,615.68,281.59Z"/></g><g class="cls-69"><path class="cls-68" d="M613.64,281.7c.84.58-.53,1-2.57,1.23,3-.05,5.71-.58,4.61-1.34s-5-.82-7.79-.57C610.31,281,612.85,281.16,613.64,281.7Z"/></g><path class="cls-12" d="M654.88,274.3c2.27,6.2-18.93,11.3-23.85,5.42S652.62,268.1,654.88,274.3Z"/><path class="cls-66" d="M656.32,275.44c2.26,6.2-18.94,11.3-23.86,5.42S654.05,269.24,656.32,275.44Z"/><g class="cls-67"><path class="cls-68" d="M649.85,278.47c2.06,1-6.8,3.07-10,2.31S647.8,277.5,649.85,278.47Z"/></g><g class="cls-69"><path class="cls-68" d="M647.86,278.91c.92.43-.36,1.1-2.34,1.63,3-.55,5.54-1.5,4.33-2.07s-5,0-7.77.7C644.45,278.72,647,278.5,647.86,278.91Z"/></g><path class="cls-12" d="M691.92,260c3.63,5.51-15.82,15.36-22,10.77S688.28,254.47,691.92,260Z"/><path class="cls-66" d="M693.57,260.75c3.64,5.52-15.81,15.37-22,10.78S689.94,255.24,693.57,260.75Z"/><g class="cls-67"><path class="cls-68" d="M688,265.19c2.22.47-5.92,4.56-9.23,4.56S685.76,264.72,688,265.19Z"/></g><g class="cls-69"><path class="cls-68" d="M686.15,266.08c1,.21-.1,1.15-1.9,2.13,2.76-1.22,5-2.74,3.74-3s-4.91,1.16-7.41,2.48C682.78,266.68,685.2,265.88,686.15,266.08Z"/></g><path class="cls-12" d="M713.73,235.69c5.62,3.46-7.86,20.6-15.37,19S708.11,232.22,713.73,235.69Z"/><path class="cls-66" d="M715.56,235.7c5.62,3.46-7.86,20.6-15.37,19S709.94,232.23,715.56,235.7Z"/><g class="cls-67"><path class="cls-68" d="M712.37,242.07c2.21-.51-3.44,6.63-6.44,8S710.15,242.59,712.37,242.07Z"/></g><g class="cls-69"><path class="cls-68" d="M711.08,243.66c1-.23.39,1.08-.83,2.72,2-2.26,3.42-4.61,2.12-4.31s-4,3.12-5.67,5.37C708.28,245.62,710.13,243.88,711.08,243.66Z"/></g><path class="cls-12" d="M718.73,203.45c5.61-.65,5.61,18-.27,20.91S713.12,204.09,718.73,203.45Z"/><path class="cls-70" d="M720,202.48c5.61-.64,5.61,18-.27,20.92S714.35,203.12,720,202.48Z"/><g class="cls-67"><path class="cls-68" d="M721.19,208.46c1.21-1.52,1.19,6.27-.09,8.8S720,210,721.19,208.46Z"/></g><g class="cls-69"><path class="cls-68" d="M721.15,210.21c.55-.69.84.51.89,2.27.14-2.58-.14-4.91-.85-4s-1,4.19-1,6.61C720.31,213,720.64,210.85,721.15,210.21Z"/></g><path class="cls-12" d="M711.38,173.32c5.15-2.31,10.8,15.46,6.08,20S706.23,175.63,711.38,173.32Z"/><path class="cls-70" d="M712.26,172c5.15-2.31,10.81,15.46,6.08,20S707.11,174.34,712.26,172Z"/><g class="cls-67"><path class="cls-68" d="M715.24,177.35c.7-1.81,3,5.62,2.59,8.42S714.54,179.17,715.24,177.35Z"/></g><g class="cls-69"><path class="cls-68" d="M715.74,179c.31-.82,1,.24,1.53,1.9-.64-2.51-1.62-4.64-2-3.58s.3,4.3,1.07,6.6C715.79,182,715.44,179.8,715.74,179Z"/></g><path class="cls-12" d="M586.46,275.62c.94,8-25.64,8.07-29.81-.3S585.52,267.63,586.46,275.62Z"/><path class="cls-66" d="M587.84,277.38c.94,8-25.64,8.06-29.81-.3S586.9,269.38,587.84,277.38Z"/><g class="cls-67"><path class="cls-68" d="M579.32,279.14c2.17,1.73-8.93,1.73-12.54-.08S577.16,277.42,579.32,279.14Z"/></g><g class="cls-69"><path class="cls-68" d="M576.84,279.11c1,.77-.74,1.2-3.24,1.27,3.68.19,7-.22,5.72-1.24s-6-1.42-9.42-1.36C572.84,277.92,575.91,278.37,576.84,279.11Z"/></g><path class="cls-12" d="M547.37,271.67c1.07,9.15-29.38,9.24-34.15-.35S546.29,262.51,547.37,271.67Z"/><path class="cls-66" d="M549,273.68c1.07,9.15-29.38,9.24-34.15-.35S547.87,264.52,549,273.68Z"/><g class="cls-67"><path class="cls-68" d="M539.19,275.7c2.48,2-10.24,2-14.36-.09S536.71,273.72,539.19,275.7Z"/></g><g class="cls-69"><path class="cls-68" d="M536.34,275.66c1.12.89-.84,1.37-3.7,1.46,4.21.22,8-.25,6.55-1.42s-6.84-1.63-10.79-1.56C531.77,274.3,535.28,274.82,536.34,275.66Z"/></g><path class="cls-12" d="M715.9,26.52c3.89-4.09-11-15.33-16.86-12.39S712,30.61,715.9,26.52Z"/><path class="cls-70" d="M717.41,26.12c3.9-4.09-11-15.33-16.86-12.39S713.52,30.21,717.41,26.12Z"/><g class="cls-67"><path class="cls-68" d="M713.38,21.54c1.94-.06-4.29-4.74-7.07-5.24S711.44,21.59,713.38,21.54Z"/></g><g class="cls-69"><path class="cls-68" d="M712,20.51c.87,0,.09-1-1.28-2.07,2.14,1.44,3.83,3.06,2.69,3.1s-4-1.72-5.86-3.21C709.22,19.49,711.14,20.53,712,20.51Z"/></g><path class="cls-12" d="M692.37,12.46C695.58,7.82,679.14-1,673.8,2.83S689.16,17.11,692.37,12.46Z"/><path class="cls-70" d="M693.8,11.83C697,7.19,680.57-1.61,675.23,2.2S690.59,16.47,693.8,11.83Z"/><g class="cls-67"><path class="cls-68" d="M689.11,7.93c1.91-.36-5-4-7.8-4.08S687.2,8.29,689.11,7.93Z"/></g><g class="cls-69"><path class="cls-68" d="M687.55,7.13c.86-.16-.06-1-1.58-1.85,2.34,1.09,4.26,2.44,3.14,2.65s-4.17-1.08-6.29-2.26C684.69,6.55,686.74,7.29,687.55,7.13Z"/></g><path class="cls-12" d="M734.35,43.91c4-2.87-6.88-15-12.41-13.48S730.32,46.77,734.35,43.91Z"/><path class="cls-71" d="M735.72,43.81c4-2.86-6.88-15-12.41-13.48S731.69,46.68,735.72,43.81Z"/><g class="cls-67"><path class="cls-68" d="M733,39.2c1.68.28-2.89-4.79-5.2-5.69S731.34,38.92,733,39.2Z"/></g><g class="cls-69"><path class="cls-68" d="M732,38.08c.75.12.24-.83-.75-2,1.6,1.6,2.78,3.28,1.79,3.12s-3.11-2.14-4.5-3.74C729.79,36.75,731.26,38,732,38.08Z"/></g><path class="cls-12" d="M750.27,63.62c4.43-2.19-4.42-15.92-10.13-15.27S745.83,65.81,750.27,63.62Z"/><path class="cls-71" d="M751.63,63.74c4.44-2.18-4.41-15.92-10.12-15.27S747.2,65.93,751.63,63.74Z"/><g class="cls-67"><path class="cls-68" d="M749.7,58.76c1.61.54-2.1-5.19-4.24-6.44S748.08,58.22,749.7,58.76Z"/></g><g class="cls-69"><path class="cls-68" d="M748.85,57.49c.72.24.37-.78-.43-2.09,1.33,1.83,2.23,3.68,1.28,3.36s-2.74-2.6-3.86-4.4C746.9,55.83,748.16,57.26,748.85,57.49Z"/></g><path class="cls-12" d="M773.7,85c3.28-2.2-5.17-12.11-9.62-11S770.43,87.18,773.7,85Z"/><path class="cls-70" d="M774.8,84.93c3.27-2.19-5.18-12.1-9.62-11S771.53,87.13,774.8,84.93Z"/><g class="cls-67"><path class="cls-68" d="M772.74,81.2c1.33.26-2.21-3.87-4-4.63S771.41,81,772.74,81.2Z"/></g><g class="cls-69"><path class="cls-68" d="M771.93,80.29c.6.12.21-.66-.56-1.61,1.25,1.31,2.15,2.67,1.37,2.52s-2.44-1.76-3.51-3.06A8.29,8.29,0,0,0,771.93,80.29Z"/></g><path class="cls-12" d="M793.17,101.06c3-2.59-6.64-11.37-10.91-9.71S790.19,103.65,793.17,101.06Z"/><path class="cls-70" d="M794.24,100.88c3-2.59-6.63-11.38-10.9-9.72S791.27,103.47,794.24,100.88Z"/><g class="cls-67"><path class="cls-68" d="M791.74,97.43c1.35.09-2.67-3.57-4.57-4.1S790.39,97.34,791.74,97.43Z"/></g><g class="cls-69"><path class="cls-68" d="M790.83,96.62c.6,0,.12-.67-.76-1.52,1.4,1.14,2.47,2.38,1.67,2.33s-2.64-1.45-3.86-2.61A8,8,0,0,0,790.83,96.62Z"/></g><path class="cls-12" d="M780.38,98.06c3.28-2.19-5.14-12.12-9.58-11S777.1,100.25,780.38,98.06Z"/><path class="cls-71" d="M781.47,98c3.28-2.19-5.14-12.13-9.58-11S778.19,100.21,781.47,98Z"/><g class="cls-67"><path class="cls-68" d="M779.43,94.28c1.33.26-2.2-3.88-4-4.65S778.09,94,779.43,94.28Z"/></g><g class="cls-69"><path class="cls-68" d="M778.62,93.37c.6.11.22-.66-.55-1.61,1.24,1.31,2.14,2.67,1.36,2.52s-2.43-1.77-3.5-3.08A8.17,8.17,0,0,0,778.62,93.37Z"/></g><path class="cls-12" d="M818.21,121.87c2-2.91-8.29-8.4-11.63-6S816.2,124.78,818.21,121.87Z"/><path class="cls-71" d="M819.1,121.47c2-2.9-8.29-8.4-11.63-6S817.09,124.38,819.1,121.47Z"/><g class="cls-67"><path class="cls-68" d="M816.16,119c1.2-.23-3.11-2.51-4.88-2.55S815,119.26,816.16,119Z"/></g><g class="cls-69"><path class="cls-68" d="M815.19,118.54c.54-.1,0-.62-1-1.16,1.46.68,2.67,1.52,2,1.66s-2.61-.68-3.93-1.41A7.43,7.43,0,0,0,815.19,118.54Z"/></g><path class="cls-12" d="M812.25,112.75c2-2.91-8.29-8.41-11.63-6S810.24,115.65,812.25,112.75Z"/><path class="cls-70" d="M813.15,112.35c2-2.91-8.29-8.4-11.63-6S811.14,115.26,813.15,112.35Z"/><g class="cls-67"><path class="cls-68" d="M810.21,109.91c1.19-.22-3.12-2.51-4.89-2.54S809,110.14,810.21,109.91Z"/></g><g class="cls-69"><path class="cls-68" d="M809.23,109.41c.54-.1,0-.61-1-1.15,1.47.68,2.67,1.52,2,1.65s-2.61-.67-3.94-1.41A7.27,7.27,0,0,0,809.23,109.41Z"/></g><path class="cls-12" d="M833.39,124.18c1.16-2.6-7.8-5.4-10.08-3S832.24,126.78,833.39,124.18Z"/><path class="cls-71" d="M834,123.73c1.15-2.59-7.8-5.39-10.08-3S832.89,126.33,834,123.73Z"/><g class="cls-67"><path class="cls-68" d="M831.36,122.25c.91-.36-2.84-1.52-4.24-1.28S830.45,122.6,831.36,122.25Z"/></g><g class="cls-69"><path class="cls-68" d="M830.51,122c.41-.16-.12-.48-1-.77,1.26.32,2.33.81,1.8,1a8,8,0,0,1-3.32-.53A5.93,5.93,0,0,0,830.51,122Z"/></g><path class="cls-12" d="M827.05,118.25c1.15-2.59-7.8-5.39-10.08-3S825.9,120.85,827.05,118.25Z"/><path class="cls-70" d="M827.7,117.8c1.15-2.59-7.8-5.39-10.08-3S826.55,120.4,827.7,117.8Z"/><g class="cls-67"><path class="cls-68" d="M825,116.32c.91-.36-2.84-1.52-4.24-1.28S824.1,116.68,825,116.32Z"/></g><g class="cls-69"><path class="cls-68" d="M824.17,116.07c.41-.16-.12-.48-1-.76,1.27.31,2.34.8,1.81,1a7.83,7.83,0,0,1-3.32-.52A5.87,5.87,0,0,0,824.17,116.07Z"/></g><path class="cls-12" d="M847.28,123.05c.14-2.43-7.9-2-9,.64S847.14,125.49,847.28,123.05Z"/><path class="cls-71" d="M847.66,122.5c.14-2.44-7.9-2-9,.64S847.53,124.93,847.66,122.5Z"/><g class="cls-67"><path class="cls-68" d="M845.06,122.12c.62-.57-2.74-.36-3.79.25S844.43,122.68,845.06,122.12Z"/></g><g class="cls-69"><path class="cls-68" d="M844.31,122.17c.27-.25-.25-.34-1-.32,1.11-.13,2.12-.06,1.76.27a6.76,6.76,0,0,1-2.83.58A5,5,0,0,0,844.31,122.17Z"/></g><path class="cls-12" d="M840,121.17c.9-2.27-6.88-4.35-8.75-2.23S839.13,123.44,840,121.17Z"/><path class="cls-70" d="M840.56,120.76c.9-2.27-6.88-4.35-8.75-2.22S839.67,123,840.56,120.76Z"/><g class="cls-67"><path class="cls-68" d="M838.21,119.58c.76-.33-2.49-1.2-3.68-1S837.44,119.92,838.21,119.58Z"/></g><g class="cls-69"><path class="cls-68" d="M837.47,119.4c.35-.15-.12-.41-.84-.62,1.09.23,2,.6,1.58.8a6.67,6.67,0,0,1-2.87-.33A4.91,4.91,0,0,0,837.47,119.4Z"/></g><path class="cls-12" d="M857.2,119c-.36-1.88-6.42,0-6.77,2.21S857.56,120.84,857.2,119Z"/><path class="cls-71" d="M857.39,118.46c-.36-1.89-6.42,0-6.77,2.2S857.75,120.34,857.39,118.46Z"/><g class="cls-67"><path class="cls-68" d="M855.32,118.66c.37-.55-2.16.25-2.85.92S855,119.21,855.32,118.66Z"/></g><g class="cls-69"><path class="cls-68" d="M854.76,118.85c.17-.25-.25-.22-.83-.06.83-.31,1.61-.45,1.39-.13a5.18,5.18,0,0,1-2.05,1A4.07,4.07,0,0,0,854.76,118.85Z"/></g><path class="cls-12" d="M866.71,110c-1.11-1.57-5.83,2.68-5.22,4.83S867.83,111.59,866.71,110Z"/><path class="cls-71" d="M866.68,109.5c-1.12-1.57-5.83,2.68-5.23,4.83S867.79,111.06,866.68,109.5Z"/><g class="cls-67"><path class="cls-68" d="M864.89,110.55c.1-.65-1.86,1.13-2.21,2S864.78,111.2,864.89,110.55Z"/></g><g class="cls-69"><path class="cls-68" d="M864.45,111c0-.3-.32-.1-.77.29.62-.63,1.27-1.09,1.21-.7a5.36,5.36,0,0,1-1.45,1.75A3.88,3.88,0,0,0,864.45,111Z"/></g><path class="cls-12" d="M871,100.74c-1.31-.85-3.59,3.77-2.49,5.21S872.33,101.58,871,100.74Z"/><path class="cls-71" d="M870.83,100.35c-1.31-.85-3.59,3.77-2.49,5.21S872.15,101.19,870.83,100.35Z"/><g class="cls-67"><path class="cls-68" d="M869.8,101.68c-.12-.53-1.06,1.41-1.06,2.19S869.91,102.2,869.8,101.68Z"/></g><g class="cls-69"><path class="cls-68" d="M869.59,102.12c-.05-.24-.27,0-.49.45.28-.66.63-1.2.7-.89a4.3,4.3,0,0,1-.57,1.75A3.14,3.14,0,0,0,869.59,102.12Z"/></g><path class="cls-12" d="M872.11,91.8c-1.41-.29-1.82,4.44-.39,5.31S873.52,92.08,872.11,91.8Z"/><path class="cls-71" d="M871.82,91.52c-1.41-.28-1.82,4.45-.4,5.32S873.23,91.81,871.82,91.52Z"/><g class="cls-67"><path class="cls-68" d="M871.38,93c-.28-.41-.45,1.57-.18,2.24S871.65,93.43,871.38,93Z"/></g><g class="cls-69"><path class="cls-68" d="M871.35,93.46c-.13-.19-.23.11-.28.55,0-.65.15-1.24.31-1a4.1,4.1,0,0,1,.1,1.7A3.09,3.09,0,0,0,871.35,93.46Z"/></g><path class="cls-12" d="M762.81,81.64C766.44,80.1,760,68.77,755.45,69S759.18,83.18,762.81,81.64Z"/><path class="cls-71" d="M763.89,81.8c3.63-1.54-2.78-12.87-7.35-12.61S760.26,83.34,763.89,81.8Z"/><g class="cls-67"><path class="cls-68" d="M762.58,77.75c1.26.5-1.43-4.22-3.08-5.32S761.32,77.25,762.58,77.75Z"/></g><g class="cls-69"><path class="cls-68" d="M762,76.7c.57.22.33-.61-.24-1.69,1,1.52,1.6,3,.86,2.74s-2.05-2.2-2.86-3.68A8.17,8.17,0,0,0,762,76.7Z"/></g><path class="cls-12" d="M801.16,113.67c2.75-2.83-7.57-10.78-11.68-8.77S798.42,116.5,801.16,113.67Z"/><path class="cls-71" d="M802.22,113.4c2.75-2.83-7.57-10.78-11.68-8.77S799.48,116.22,802.22,113.4Z"/><g class="cls-67"><path class="cls-68" d="M799.44,110.17c1.35,0-3-3.33-4.91-3.7S798.08,110.2,799.44,110.17Z"/></g><g class="cls-69"><path class="cls-68" d="M798.46,109.44c.61,0,.07-.68-.88-1.45,1.49,1,2.65,2.17,1.86,2.18s-2.75-1.22-4.07-2.28A7.9,7.9,0,0,0,798.46,109.44Z"/></g><path class="cls-19" d="M224,303c.81,4.9-17.21,7.16-20.22,2.3S223.15,298.09,224,303Z"/><path class="cls-19" d="M192,311c.81,4.9-17.21,7.16-20.22,2.3S191.17,306.1,192,311Z"/><path class="cls-19" d="M59.67,326.79c1.19,5.37-10,5.31-12.56-.33S58.48,321.41,59.67,326.79Z"/><path class="cls-19" d="M87.57,324.88c2.67,4.81-8,7.93-12.14,3.26S84.89,320.07,87.57,324.88Z"/><path class="cls-72" d="M68.49,271.85s-25.78-34-58.85,1,23.88,89.1,96.21,68.32C167.39,323.46,228,283.35,259,320.6s-54.66,49-81.65,8.48,12.61-83.42,73.43-69.19,109,44.18,197,8.19c0,0,28.41-37.92-19.58-76.78,0,0-40.82,35.46-118.52,11.93S137,175.88,114.48,274.75,215.1,417.48,276.56,388.49s33.2-100.39-32-117S122,324,72.35,326.32s-70-35.66-53.6-52.45S55.09,260.26,68.49,271.85Z"/><path class="cls-73" d="M98.32,323.58c-11.27,4.63-34.78,21.65-72.14,9.81C1,318.36-9,292.56,9.64,272.82c33.07-35,58.85-1,58.85-1-13.4-11.59-33.36-14.76-49.74,2s3.95,54.78,53.6,52.45a78,78,0,0,0,22.74-5,19.15,19.15,0,0,1,11.21.14A25.5,25.5,0,0,0,98.32,323.58Z"/><path class="cls-74" d="M182.35,313.86c-3.58,1.2-7.23,2.48-10.92,3.83-5-13.53-3-26.68,4.28-37.27,19.94-8.66,40.77-14,62.48-10.26l1.4.28c.67.13,1.34.29,2,.43C201,269.25,161.45,304.81,182.35,313.86Z"/><path class="cls-75" d="M95.08,321.31a170.92,170.92,0,0,0,18.09-7.95,83.47,83.47,0,0,0,7.6,23.08c-5,1.68-9.94,3.27-14.92,4.7a119.31,119.31,0,0,1-20.64,4C130.72,333.46,110.29,316.75,95.08,321.31Z"/><path class="cls-76" d="M72.35,326.32a69,69,0,0,0,15.06-2.55c-37.48,20.48-60.08,12.33-73.4.41C-1.69,309.13-5.61,289,9.64,272.82c33.07-35,58.85-1,58.85-1-13.4-11.59-33.36-14.76-49.74,2S22.7,328.65,72.35,326.32Z"/><path class="cls-77" d="M264.91,392.89a83.69,83.69,0,0,0,11.65-4.4,81.69,81.69,0,0,0,8.33-4.58c2.51-1.8,4.9-3.49,7.14-5.06,28.94-23.68,22-61.3-6.21-86-11.78-8.13-25.79-12.58-42-9.05-30.14,6.55-54.06,18-73,32.14-4.19-12.89-2.09-25.36,4.85-35.48,12.41-18.1,40.23-28.67,75-20.53,60.82,14.24,109,44.18,197,8.19a41.23,41.23,0,0,0,4.25-7.79c-80.37,29.69-119.45,6.26-164-8.84-43.37-14.7-119-21.2-133.38,39.31a82.66,82.66,0,0,0-1.78,9.9,72.15,72.15,0,0,0,1.13,23.6c.35,1.67.77,3.31,1.24,4.94C168.34,374.78,224.71,402.43,264.91,392.89ZM177.3,329.08a54.87,54.87,0,0,1-5.87-11.39c36.23-13.19,67.86-20.75,87.52,2.91C289.91,357.85,204.29,369.61,177.3,329.08Z"/><path class="cls-12" d="M170.86,315.9q3.51-2.62,7.26-5.12c.94,1.22,2.95,2.05,5.59,2.62-4,1.32-8.12,2.77-12.28,4.29C171.21,317.09,171.05,316.5,170.86,315.9Z"/><path class="cls-12" d="M218.8,353.43a78.84,78.84,0,0,0,8.68.95,73.13,73.13,0,0,0,8.38,0,59.18,59.18,0,0,0,11.45-1.75c1.18-.31,2.31-.65,3.4-1a34.76,34.76,0,0,0,6-2.69,25.21,25.21,0,0,0,2.5-1.66,16.73,16.73,0,0,0,5.2-6.13c2.55-5.43,1.35-12.35-5.42-20.5a44.46,44.46,0,0,0-3.49-3.72c-.37-.36-.75-.68-1.12-1-.87-.78-1.75-1.51-2.65-2.19-.43-.32-.85-.64-1.29-.94-1-.66-2-1.28-3-1.85-.35-.2-.7-.42-1.06-.61a39.62,39.62,0,0,0-4.2-1.92c-.23-.09-.46-.15-.69-.24-.85-.31-1.71-.61-2.58-.87,21.47,5.75,35.45,23.94,34.63,38.78-.81,14.68-50.25,19.59-83.17-3.79a60.49,60.49,0,0,0,7.13,4.3A73.5,73.5,0,0,0,218.8,353.43Z"/><path class="cls-78" d="M120.72,336.46a83.49,83.49,0,0,1-7.63-23.06,97.28,97.28,0,0,1,1.39-38.65c9.66-42.39,32.65-65.86,61.85-77-48.64,21.43-66.14,72.1-58.64,113.34a92,92,0,0,0,7.17,22.72c.17.37.37.72.54,1.08,15.14,31,46,48,63.36,55.36C160,380.94,133.88,362.72,120.72,336.46Z"/><path class="cls-79" d="M361.52,246.78C344,277.28,246.9,175.52,175.21,198.27c.38-.18.73-.39,1.12-.56l.28-.11,1.79-.7c21.65-7.77,46.56-9,71.95-6.23C328.55,205.54,365.87,233.53,361.52,246.78Z"/><path class="cls-80" d="M188.76,390.21c-16.59-7.08-45.54-22.92-61.27-51.45-.71-1.29-1.43-2.57-2.09-3.91-.17-.36-.36-.7-.53-1.07a91.79,91.79,0,0,1-7.18-22.73,105.84,105.84,0,0,1-1.36-26c8.7-38.32,51.38-60.12,95.23-48.28,0,0-56.33,7.81-63.24,57.38a85.26,85.26,0,0,0,1,27.76c.25,1.3.56,2.52.85,3.78,12,53.15,58.55,67.65,83.84,71.57A145.12,145.12,0,0,1,188.76,390.21Z"/><path class="cls-17" d="M149.47,285.09c1.8-1.39.24,10.23-1.72,8.5S147.31,286.75,149.47,285.09Z"/><path class="cls-17" d="M148.54,296c-1,1-2.86-.52-.89-1.43S149.77,294.76,148.54,296Z"/><path class="cls-17" d="M67.3,337.11c-2.32,1.84-5.31.2-1.24-1.79S70.08,334.91,67.3,337.11Z"/><path class="cls-17" d="M304.63,234.77c-1.1-2.49,12.79,2.36,10,4.24S306,237.76,304.63,234.77Z"/><path class="cls-17" d="M317.84,238.7c.92,1.47-1.63,3.24-2.08.68S316.75,236.92,317.84,238.7Z"/><path class="cls-12" d="M375.45,280c-1.18,7.26,23.08,8.43,27.24,1S376.64,272.7,375.45,280Z"/><path class="cls-66" d="M374.12,281.51c-1.19,7.26,23.08,8.43,27.24,1S375.31,274.25,374.12,281.51Z"/><g class="cls-67"><path class="cls-68" d="M381.82,283.48c-2,1.48,8.09,1.94,11.46.44S383.87,282,381.82,283.48Z"/></g><g class="cls-69"><path class="cls-68" d="M384.1,283.54c-.92.67.62,1.13,2.9,1.3-3.37,0-6.38-.49-5.18-1.36s5.52-1.06,8.66-.86C387.79,282.63,385,282.91,384.1,283.54Z"/></g><path class="cls-12" d="M337.78,276.44c-2.28,7,21.52,11.85,26.77,5.1S340.06,269.45,337.78,276.44Z"/><path class="cls-66" d="M336.22,277.77c-2.28,7,21.53,11.84,26.78,5.09S338.5,270.78,336.22,277.77Z"/><g class="cls-67"><path class="cls-68" d="M343.54,280.89c-2.25,1.16,7.7,3.15,11.25,2.18S345.79,279.73,343.54,280.89Z"/></g><g class="cls-69"><path class="cls-68" d="M345.77,281.3c-1,.52.45,1.21,2.67,1.72-3.33-.48-6.23-1.45-4.9-2.13s5.61-.21,8.69.47C349.57,281,346.73,280.81,345.77,281.3Z"/></g><path class="cls-12" d="M297.15,264c-3.84,6.28,18.21,16.49,24.87,11.14S301,257.72,297.15,264Z"/><path class="cls-66" d="M295.33,264.93c-3.83,6.28,18.22,16.49,24.87,11.14S299.16,258.66,295.33,264.93Z"/><g class="cls-67"><path class="cls-68" d="M301.73,269.66c-2.46.6,6.76,4.84,10.44,4.71S304.19,269.05,301.73,269.66Z"/></g><g class="cls-69"><path class="cls-68" d="M303.81,270.57c-1.11.28.15,1.28,2.2,2.29-3.13-1.24-5.73-2.85-4.28-3.2s5.5,1.09,8.34,2.46C307.58,271.11,304.86,270.31,303.81,270.57Z"/></g><path class="cls-12" d="M257.45,252.56c-3.22,6.62,19.69,14.7,25.82,8.74S260.67,246,257.45,252.56Z"/><path class="cls-70" d="M255.73,253.66c-3.22,6.61,19.69,14.7,25.82,8.74S259,247.05,255.73,253.66Z"/><g class="cls-67"><path class="cls-68" d="M262.55,257.76c-2.39.84,7.19,4.18,10.84,3.71S264.94,256.92,262.55,257.76Z"/></g><g class="cls-69"><path class="cls-68" d="M264.71,258.48c-1.08.37.27,1.25,2.4,2.07-3.23-.94-6-2.3-4.56-2.79s5.58.57,8.54,1.66C268.51,258.66,265.72,258.12,264.71,258.48Z"/></g><path class="cls-12" d="M225.28,249c-1.9,6,18.49,10,22.93,4.16S227.18,243,225.28,249Z"/><path class="cls-70" d="M224,250.12c-1.9,6,18.5,10,22.93,4.17S225.86,244.13,224,250.12Z"/><g class="cls-67"><path class="cls-68" d="M230.24,252.74c-1.92,1,6.61,2.64,9.64,1.78S232.16,251.73,230.24,252.74Z"/></g><g class="cls-69"><path class="cls-68" d="M232.15,253.07c-.86.46.39,1,2.3,1.46-2.85-.4-5.34-1.2-4.21-1.79s4.79-.22,7.43.34C235.39,252.75,233,252.64,232.15,253.07Z"/></g><path class="cls-12" d="M192.59,256.45c.25,6.29,20.78,3.1,23-3.88S192.33,250.17,192.59,256.45Z"/><path class="cls-70" d="M191.74,258c.25,6.28,20.78,3.09,23-3.88S191.48,251.69,191.74,258Z"/><g class="cls-67"><path class="cls-68" d="M198.53,258.3c-1.46,1.6,7.11.24,9.67-1.6S200,256.7,198.53,258.3Z"/></g><g class="cls-69"><path class="cls-68" d="M200.45,258c-.66.72.71.83,2.65.58-2.82.61-5.43.69-4.57-.25s4.44-1.83,7.11-2.2C203.38,256.56,201.07,257.29,200.45,258Z"/></g><path class="cls-12" d="M167.63,275.31c2.51,5.77,20.49-4.65,20-11.95S165.12,269.54,167.63,275.31Z"/><path class="cls-70" d="M167.39,277c2.51,5.77,20.49-4.65,20-12S164.88,271.27,167.39,277Z"/><g class="cls-67"><path class="cls-68" d="M173.84,274.88c-.79,2,6.71-2.36,8.43-5S174.62,272.86,173.84,274.88Z"/></g><g class="cls-69"><path class="cls-68" d="M175.5,273.87c-.35.91,1,.52,2.69-.41-2.41,1.58-4.81,2.61-4.35,1.42s3.47-3.32,5.82-4.63C177.73,271.5,175.84,273,175.5,273.87Z"/></g><path class="cls-12" d="M158.24,302.5c4.71,2.86,12.34-13.66,8.32-18.65S153.53,299.63,158.24,302.5Z"/><path class="cls-70" d="M158.94,303.86c4.71,2.86,12.34-13.66,8.32-18.65S154.23,301,158.94,303.86Z"/><g class="cls-67"><path class="cls-68" d="M162.47,299.06c.46,1.84,3.63-5.07,3.53-7.83S162,297.22,162.47,299.06Z"/></g><g class="cls-69"><path class="cls-68" d="M163.16,297.5c.2.83,1-.11,1.71-1.65-.93,2.35-2.13,4.29-2.4,3.21s.82-4.12,1.84-6.25C163.56,294.68,163,296.72,163.16,297.5Z"/></g><path class="cls-12" d="M160.31,332c5.51.25,4.23-17.91-1.69-20.34S154.81,331.78,160.31,332Z"/><path class="cls-70" d="M161.58,332.88c5.51.24,4.23-17.92-1.7-20.35S156.08,332.64,161.58,332.88Z"/><g class="cls-67"><path class="cls-68" d="M162.36,327c1.29,1.4.74-6.19-.68-8.56S161.08,325.58,162.36,327Z"/></g><g class="cls-69"><path class="cls-68" d="M162.21,325.28c.58.62.79-.57.71-2.28.32,2.51.2,4.79-.56,4s-1.27-4-1.4-6.36C161.2,322.61,161.66,324.68,162.21,325.28Z"/></g><path class="cls-12" d="M172.33,328.89c5.46-.79.82-18.39-5.46-19.68S166.88,329.68,172.33,328.89Z"/><path class="cls-70" d="M173.74,329.49c5.45-.79.81-18.39-5.46-19.67S168.29,330.28,173.74,329.49Z"/><g class="cls-67"><path class="cls-68" d="M173.41,323.54c1.52,1.13-.44-6.22-2.27-8.28S171.88,322.41,173.41,323.54Z"/></g><g class="cls-69"><path class="cls-68" d="M172.94,321.9c.69.51.67-.7.27-2.36.78,2.4,1.09,4.67.2,4s-2-3.7-2.57-6C171.45,319.47,172.29,321.42,172.94,321.9Z"/></g><path class="cls-12" d="M175.91,357c5.1-2.09-3.67-18-10.07-17.75S170.82,359.11,175.91,357Z"/><path class="cls-70" d="M177.42,357.27c5.1-2.09-3.68-18-10.07-17.76S172.33,359.36,177.42,357.27Z"/><g class="cls-67"><path class="cls-68" d="M175.66,351.58c1.75.72-1.94-5.93-4.22-7.48S173.9,350.85,175.66,351.58Z"/></g><g class="cls-69"><path class="cls-68" d="M174.81,350.1c.78.33.47-.84-.31-2.36,1.33,2.14,2.19,4.26,1.16,3.84s-2.84-3.1-3.95-5.19C172.77,348.1,174.06,349.79,174.81,350.1Z"/></g><path class="cls-12" d="M185.16,349.83c5.35-2.19-3.54-18.09-10.21-17.7S179.81,352,185.16,349.83Z"/><path class="cls-70" d="M186.73,350.05c5.35-2.19-3.54-18.09-10.21-17.7S181.38,352.24,186.73,350.05Z"/><g class="cls-67"><path class="cls-68" d="M184.51,344.54c2.82.31-1.67-6-5.17-7.12S181.69,344.23,184.51,344.54Z"/></g><g class="cls-69"><path class="cls-68" d="M183.46,343.14c1.27.14,1-1.07.12-2.53,1.71,2,2.59,4.11.93,3.93s-4-2.65-5.34-4.65C180.51,341.49,182.26,343,183.46,343.14Z"/></g><path class="cls-12" d="M195.42,373.11c4.26-3.09-6.71-14.73-12.49-12.88S191.16,376.21,195.42,373.11Z"/><path class="cls-70" d="M196.84,373c4.26-3.1-6.71-14.73-12.49-12.89S192.58,376,196.84,373Z"/><g class="cls-67"><path class="cls-68" d="M194.17,368.45c1.73.19-2.86-4.65-5.23-5.43S192.44,368.27,194.17,368.45Z"/></g><g class="cls-69"><path class="cls-68" d="M193.12,367.38c.78.09.28-.84-.72-2,1.62,1.53,2.79,3.15,1.77,3s-3.16-2-4.56-3.51C190.89,366.16,192.38,367.3,193.12,367.38Z"/></g><path class="cls-12" d="M207.56,300.57c.48,6.73,20.56,2.68,22.47-4.86S207.08,293.84,207.56,300.57Z"/><path class="cls-71" d="M206.78,302.23c.48,6.73,20.56,2.68,22.47-4.86S206.3,295.5,206.78,302.23Z"/><g class="cls-67"><path class="cls-68" d="M213.47,302.37c-1.38,1.76,7,0,9.46-2S214.85,300.61,213.47,302.37Z"/></g><g class="cls-69"><path class="cls-68" d="M215.35,302c-.62.79.73.88,2.63.55-2.75.73-5.32.9-4.51-.13s4.3-2.1,6.91-2.58C218.18,300.36,215.93,301.2,215.35,302Z"/></g><path class="cls-12" d="M186.27,309c.34,4.79,14.62,1.91,16-3.45S185.93,304.21,186.27,309Z"/><path class="cls-70" d="M185.71,310.17c.35,4.79,14.63,1.91,16-3.45S185.37,305.39,185.71,310.17Z"/><g class="cls-67"><path class="cls-68" d="M190.47,310.27c-1,1.25,5,0,6.73-1.43S191.45,309,190.47,310.27Z"/></g><g class="cls-69"><path class="cls-68" d="M191.81,310c-.44.57.52.63,1.87.39-2,.52-3.78.65-3.21-.09s3.06-1.49,4.92-1.83C193.82,308.84,192.22,309.44,191.81,310Z"/></g><path class="cls-12" d="M227.42,301.78c-1.37,4.6,13,7,16.17,2.42S228.8,297.18,227.42,301.78Z"/><path class="cls-70" d="M226.49,302.69c-1.38,4.59,13,6.95,16.16,2.42S227.86,298.09,226.49,302.69Z"/><g class="cls-67"><path class="cls-68" d="M230.9,304.46c-1.36.83,4.65,1.79,6.8,1.05S232.26,303.64,230.9,304.46Z"/></g><g class="cls-69"><path class="cls-68" d="M232.25,304.66c-.61.37.27.76,1.62,1-2-.2-3.77-.73-3-1.22s3.39-.31,5.25,0C234.54,304.31,232.83,304.31,232.25,304.66Z"/></g><path class="cls-12" d="M205.49,362c5.7-4.83-6.34-16.27-13.76-12.57S199.79,366.86,205.49,362Z"/><path class="cls-71" d="M204.31,362.21c5.7-4.84-6.34-16.28-13.76-12.58S198.61,367,204.31,362.21Z"/><g class="cls-67"><path class="cls-68" d="M200.89,359.12c2.89-2.45-3.21-8.24-7-6.37S198,361.57,200.89,359.12Z"/></g><g class="cls-69"><path class="cls-68" d="M199.49,357.9c1.29-1.1.77-2.87-.53-4.32,2.21,1.51,3.63,4.1,1.93,5.54s-4.68-.16-6.51-2.1C196.13,358.27,198.26,358.94,199.49,357.9Z"/></g><path class="cls-12" d="M227.69,365.86c4.37-6.06-10.06-14.28-16.38-8.91S223.31,371.92,227.69,365.86Z"/><path class="cls-71" d="M226.58,366.32c4.38-6.06-10.06-14.28-16.37-8.91S222.21,372.38,226.58,366.32Z"/><g class="cls-67"><path class="cls-68" d="M222.52,364.14c2.22-3.07-5.09-7.23-8.29-4.51S220.31,367.21,222.52,364.14Z"/></g><g class="cls-69"><path class="cls-68" d="M220.87,363.3c1-1.38.06-3-1.55-4.07,2.51.94,4.51,3.11,3.2,4.91s-4.58,1-6.82-.47C217.7,364.47,219.92,364.6,220.87,363.3Z"/></g><path class="cls-12" d="M222.89,380c4.38-6.06-10.06-14.28-16.37-8.91S218.52,386.08,222.89,380Z"/><path class="cls-71" d="M221.79,380.47c4.37-6.06-10.06-14.28-16.38-8.91S217.41,386.54,221.79,380.47Z"/><g class="cls-67"><path class="cls-68" d="M217.73,378.3c2.21-3.07-5.1-7.24-8.3-4.52S215.51,381.37,217.73,378.3Z"/></g><g class="cls-69"><path class="cls-68" d="M216.07,377.45c1-1.38.06-3-1.55-4.07,2.51.94,4.51,3.11,3.21,4.92s-4.59,1-6.83-.48C212.9,378.62,215.13,378.76,216.07,377.45Z"/></g><path class="cls-12" d="M250.79,364.23c2.24-8.65-14-12.65-18.35-4.06S248.54,372.88,250.79,364.23Z"/><path class="cls-71" d="M249.88,365.18c2.24-8.65-14-12.65-18.35-4.06S247.64,373.83,249.88,365.18Z"/><g class="cls-67"><path class="cls-68" d="M245.34,364.21c1.14-4.38-7.11-6.41-9.29-2.06S244.21,368.59,245.34,364.21Z"/></g><g class="cls-69"><path class="cls-68" d="M243.5,363.86c.51-2-.87-3.45-2.75-4.11,2.68.14,5.26,1.88,4.59,4.46-.62,2.41-4,2.85-6.62,2C240.86,366.41,243,365.73,243.5,363.86Z"/></g><path class="cls-12" d="M253,384.35c2.24-8.65-14.05-12.65-18.35-4.07S250.78,393,253,384.35Z"/><path class="cls-71" d="M252.12,385.3c2.25-8.65-14-12.65-18.34-4.07S249.88,393.94,252.12,385.3Z"/><g class="cls-67"><path class="cls-68" d="M247.59,384.32c1.13-4.37-7.12-6.4-9.3-2.05S246.45,388.7,247.59,384.32Z"/></g><g class="cls-69"><path class="cls-68" d="M245.75,384c.51-2-.88-3.46-2.75-4.11,2.68.13,5.25,1.88,4.59,4.45s-4.05,2.86-6.63,2.05C243.11,386.53,245.26,385.84,245.75,384Z"/></g><path class="cls-12" d="M273,356.15c-1.09-9.62-17.91-8.26-18.79,2S274.05,365.78,273,356.15Z"/><path class="cls-71" d="M272.46,357.43c-1.09-9.62-17.91-8.27-18.79,2S273.55,367.06,272.46,357.43Z"/><g class="cls-67"><path class="cls-68" d="M267.83,358c-.55-4.88-9.08-4.19-9.52,1S268.38,362.83,267.83,358Z"/></g><g class="cls-69"><path class="cls-68" d="M266,358.22c-.25-2.19-2.11-3.25-4.12-3.29,2.58-.77,5.65.16,6,3,.3,2.69-2.76,4.29-5.49,4.32C264.42,361.72,266.2,360.29,266,358.22Z"/></g><path class="cls-12" d="M285.87,376c-.49-9.85-21.24-7-23.21,3.7S286.37,385.88,285.87,376Z"/><path class="cls-71" d="M285.15,377.39c-.5-9.86-21.24-7-23.21,3.69S285.64,387.24,285.15,377.39Z"/><g class="cls-67"><path class="cls-68" d="M279.42,378.34c-.25-5-10.76-3.54-11.75,1.87S279.67,383.33,279.42,378.34Z"/></g><g class="cls-69"><path class="cls-68" d="M277.11,378.77c-.11-2.25-2.29-3.18-4.75-3,3.22-1,6.91-.32,7.06,2.62.14,2.75-3.75,4.67-7.1,4.94C274.92,382.52,277.22,380.89,277.11,378.77Z"/></g><path class="cls-12" d="M282.41,332c-8.32-5-17.43,9.25-9.8,16.16S290.73,337,282.41,332Z"/><path class="cls-71" d="M283.12,333.2c-8.32-5-17.43,9.25-9.8,16.16S291.44,338.17,283.12,333.2Z"/><g class="cls-67"><path class="cls-68" d="M280.73,337.21c-4.21-2.51-8.82,4.69-5,8.18S285,339.72,280.73,337.21Z"/></g><g class="cls-69"><path class="cls-68" d="M279.81,338.85c-1.89-1.13-3.86-.29-5.11,1.28.95-2.51,3.55-4.4,6-2.92,2.32,1.39,1.75,4.79.12,7C281.66,342.2,281.61,339.92,279.81,338.85Z"/></g><path class="cls-12" d="M303.85,346.69c-6.34-7.64-20.87,7.11-16,16.89S310.18,354.32,303.85,346.69Z"/><path class="cls-71" d="M304.1,348.22c-6.34-7.64-20.86,7.12-16,16.89S310.44,355.86,304.1,348.22Z"/><g class="cls-67"><path class="cls-68" d="M300.18,352.42c-3.21-3.87-10.56,3.6-8.08,8.55S303.39,356.29,300.18,352.42Z"/></g><g class="cls-69"><path class="cls-68" d="M298.64,354.15c-1.44-1.74-3.72-1.18-5.56.4,1.91-2.75,5.22-4.41,7.1-2.13,1.77,2.13-.11,6-2.58,8.24C299.18,358.49,300,355.8,298.64,354.15Z"/></g><path class="cls-12" d="M267.26,312.2c-8.58,4.49-1.24,19.69,8.64,16.8S275.84,307.71,267.26,312.2Z"/><path class="cls-71" d="M268.63,312.2c-8.58,4.5-1.24,19.7,8.64,16.81S277.22,307.71,268.63,312.2Z"/><g class="cls-67"><path class="cls-68" d="M270.8,316.34c-4.35,2.27-.63,10,4.37,8.51S275.14,314.06,270.8,316.34Z"/></g><g class="cls-69"><path class="cls-68" d="M271.71,318c-1.95,1-2.27,3.13-1.58,5-1.64-2.12-1.89-5.33.67-6.66,2.39-1.26,5,1,6,3.55C275.54,318.15,273.56,317,271.71,318Z"/></g><path class="cls-12" d="M246.25,301.82c-3.91,6.8,10.7,16.39,16.54,10.41S250.15,295,246.25,301.82Z"/><path class="cls-71" d="M247.3,301.32c-3.9,6.8,10.7,16.39,16.55,10.41S251.21,294.53,247.3,301.32Z"/><g class="cls-67"><path class="cls-68" d="M251.4,303.87c-2,3.44,5.42,8.3,8.38,5.27S253.38,300.42,251.4,303.87Z"/></g><g class="cls-69"><path class="cls-68" d="M253.07,304.86c-.89,1.54.12,3.37,1.76,4.64-2.51-1.11-4.59-3.61-3.43-5.63s4.42-1,6.7.66C256.1,303.59,253.91,303.39,253.07,304.86Z"/></g><path class="cls-12" d="M292.85,311.05c-9.52,2-4.65,22.18,5.91,22.49S302.37,309,292.85,311.05Z"/><path class="cls-71" d="M294.25,311.56c-9.52,2-4.66,22.18,5.91,22.49S303.77,309.55,294.25,311.56Z"/><g class="cls-67"><path class="cls-68" d="M295.74,317.1c-4.82,1-2.35,11.24,3,11.39S300.56,316.08,295.74,317.1Z"/></g><g class="cls-69"><path class="cls-68" d="M296.39,319.33c-2.16.45-2.85,2.76-2.48,5.19-1.3-3-1-6.82,1.83-7.42,2.66-.56,4.92,3,5.51,6.3C300.26,320.93,298.45,318.89,296.39,319.33Z"/></g><path class="cls-12" d="M266.7,293.06c-6,7.65,10.68,20,19,13.46S272.71,285.41,266.7,293.06Z"/><path class="cls-71" d="M268.1,292.56c-6,7.65,10.67,20,19,13.45S274.11,284.9,268.1,292.56Z"/><g class="cls-67"><path class="cls-68" d="M272.81,295.85c-3,3.87,5.4,10.13,9.61,6.81S275.85,292,272.81,295.85Z"/></g><g class="cls-69"><path class="cls-68" d="M274.73,297.14c-1.36,1.74-.4,3.95,1.44,5.57-3-1.5-5.15-4.58-3.36-6.86s5.7-.85,8.27,1.29C278.73,295.89,276,295.49,274.73,297.14Z"/></g><path class="cls-12" d="M234.08,293.36c-.63,8.84,19.84,8.12,22.95-1.24S234.7,284.51,234.08,293.36Z"/><path class="cls-71" d="M234.93,292.2c-.62,8.85,19.85,8.13,23-1.23S235.56,283.36,234.93,292.2Z"/><g class="cls-67"><path class="cls-68" d="M240.6,291.87c-.31,4.48,10.05,4.11,11.63-.63S240.92,287.39,240.6,291.87Z"/></g><g class="cls-69"><path class="cls-68" d="M242.89,291.69c-.14,2,1.87,3,4.27,3.14-3.24.62-6.74-.33-6.56-3,.18-2.47,4.17-3.84,7.45-3.79C245.44,288.53,243,289.78,242.89,291.69Z"/></g><path class="cls-12" d="M46.18,333.94c-1.52-4.67,12.46-9,15.73-4.64S47.71,338.62,46.18,333.94Z"/><path class="cls-71" d="M45.23,333.11c-1.53-4.68,12.45-9,15.73-4.65S46.76,337.78,45.23,333.11Z"/><g class="cls-67"><path class="cls-68" d="M49.48,330.66c-1.36-.69,4.48-2.49,6.62-2S50.85,331.35,49.48,330.66Z"/></g><g class="cls-69"><path class="cls-68" d="M50.8,330.28c-.61-.31.23-.84,1.54-1.29-2,.48-3.66,1.26-2.86,1.67s3.33-.1,5.14-.7C53.05,330.35,51.38,330.58,50.8,330.28Z"/></g><path class="cls-12" d="M65.9,330c-1.25-3.38,8.88-7,11.4-3.85S67.15,333.41,65.9,330Z"/><path class="cls-71" d="M65.18,329.44c-1.25-3.38,8.87-7,11.4-3.84S66.43,332.83,65.18,329.44Z"/><g class="cls-67"><path class="cls-68" d="M68.23,327.53c-1-.47,3.21-1.95,4.79-1.64S69.25,328,68.23,327.53Z"/></g><g class="cls-69"><path class="cls-68" d="M69.18,327.22c-.46-.22.15-.63,1.09-1-1.42.4-2.64,1-2,1.3s2.44-.17,3.74-.66A5.84,5.84,0,0,1,69.18,327.22Z"/></g><path class="cls-12" d="M12.49,316.15c2.62-3,10.09,3.48,8.24,7.43S9.87,319.16,12.49,316.15Z"/><path class="cls-71" d="M12.15,314.86c2.63-3,10.09,3.49,8.24,7.43S9.53,317.88,12.15,314.86Z"/><g class="cls-67"><path class="cls-68" d="M14.2,316.77c1.37-1.49,5.06,1.91,4.06,3.88S12.83,318.26,14.2,316.77Z"/></g><g class="cls-69"><path class="cls-68" d="M15,317.55c.62-.67,1.7-.35,2.61.38-1-1.22-2.58-2-3.39-1.16s.26,2.51,1.48,3.53C14.87,319.34,14.4,318.18,15,317.55Z"/></g><path class="cls-12" d="M7.4,304.75c2.89-1.57,6.17,6.05,3.53,8.6S4.51,306.31,7.4,304.75Z"/><path class="cls-71" d="M6.6,304c2.9-1.56,6.17,6.05,3.53,8.6S3.71,305.52,6.6,304Z"/><g class="cls-67"><path class="cls-68" d="M7.44,306.16c1.41-.89,3.32,2.85,2.07,4.23S6,307.05,7.44,306.16Z"/></g><g class="cls-69"><path class="cls-68" d="M7.83,307c.63-.4,1.36.14,1.87,1-.43-1.25-1.43-2.33-2.26-1.81s-.44,2.14.22,3.3C7.29,308.46,7.23,307.38,7.83,307Z"/></g><path class="cls-12" d="M5.31,300.4c2.36.8,3.91-7.34,1.62-9.15S3,299.6,5.31,300.4Z"/><path class="cls-71" d="M4.56,300.62c2.37.8,3.91-7.34,1.62-9.15S2.2,299.83,4.56,300.62Z"/><g class="cls-67"><path class="cls-68" d="M5.21,298.68c.77.34,1.54-3.92.82-4.79S4.44,298.34,5.21,298.68Z"/></g><g class="cls-69"><path class="cls-68" d="M5.36,297.73c.35.16.69-.62.9-1.6-.15,1.36-.6,2.75-1,2.55s-.35-1.89-.08-3.23C5,296.54,5,297.59,5.36,297.73Z"/></g><path class="cls-12" d="M44.09,326.35c3.17-2.76-8.58-9.11-13.31-7S40.92,329.11,44.09,326.35Z"/><path class="cls-71" d="M44.15,325.24c3.17-2.76-8.58-9.1-13.31-7S41,328,44.15,325.24Z"/><g class="cls-67"><path class="cls-68" d="M34.47,319.71c-1.16.86,5,4.13,7,3.61S35.64,318.85,34.47,319.71Z"/></g><g class="cls-69"><path class="cls-68" d="M35.86,320.41c-.53.38.43,1.26,1.83,2-2-.91-3.9-2.24-3.22-2.75s3.29.52,5.21,1.59C38.05,320.55,36.35,320,35.86,320.41Z"/></g><path class="cls-12" d="M27,317.4c2.51-1.3-4-7.14-7.4-6.47S24.52,318.7,27,317.4Z"/><path class="cls-71" d="M27.26,316.7c2.51-1.3-4-7.14-7.41-6.48S24.75,318,27.26,316.7Z"/><g class="cls-67"><path class="cls-68" d="M21.85,311.78c-.88.43,2.72,3.27,4.07,3.16S22.72,311.35,21.85,311.78Z"/></g><g class="cls-69"><path class="cls-68" d="M22.66,312.4c-.39.19.12.87.92,1.55-1.21-.83-2.25-1.92-1.73-2.17s2.08.72,3.18,1.64C24.07,312.74,23,312.21,22.66,312.4Z"/></g><path class="cls-12" d="M18.21,309.06c2.83,0-.13-6.56-3.45-7.36S15.39,309.05,18.21,309.06Z"/><path class="cls-71" d="M17.53,308.73c2.83,0-.13-6.56-3.45-7.36S14.71,308.72,17.53,308.73Z"/><g class="cls-67"><path class="cls-68" d="M14.9,303.38c-1,.07,1.09,3.24,2.36,3.54S15.87,303.3,14.9,303.38Z"/></g><g class="cls-69"><path class="cls-68" d="M15.38,304.07c-.44,0-.26.69.18,1.44-.75-1-1.23-2.09-.66-2.13s1.58,1.13,2.2,2.14C16.51,304.74,15.79,304,15.38,304.07Z"/></g><path class="cls-12" d="M11.94,300.17c2.45,1.4,3.13-5.77.64-8.11S9.48,298.76,11.94,300.17Z"/><path class="cls-71" d="M11.43,299.6c2.45,1.41,3.14-5.77.65-8.1S9,298.19,11.43,299.6Z"/><g class="cls-67"><path class="cls-68" d="M11.87,298c.81.53,1.13-3.24.32-4.25S11.06,297.43,11.87,298Z"/></g><g class="cls-69"><path class="cls-68" d="M11.92,297.13c.37.24.63-.39.74-1.25,0,1.23-.31,2.4-.79,2.09s-.55-1.87-.42-3C11.44,295.91,11.58,296.9,11.92,297.13Z"/></g><path class="cls-12" d="M6.4,287.49c1.83.72,3.49-5.54,1.78-7.05S4.58,286.77,6.4,287.49Z"/><path class="cls-71" d="M5.85,287.34c1.82.72,3.49-5.54,1.78-7S4,286.62,5.85,287.34Z"/><g class="cls-67"><path class="cls-68" d="M6.17,285.36c.28.62,1-2,.76-3S5.9,284.75,6.17,285.36Z"/></g><g class="cls-69"><path class="cls-68" d="M6.32,284.78c.12.27.33-.1.5-.69-.18.88-.49,1.64-.65,1.27a5.45,5.45,0,0,1,.27-2.3A4,4,0,0,0,6.32,284.78Z"/></g><path class="cls-12" d="M10.69,288.21c1.82.72,3.49-5.54,1.78-7S8.86,287.5,10.69,288.21Z"/><path class="cls-71" d="M10.13,288.07c1.83.71,3.5-5.55,1.78-7.05S8.31,287.35,10.13,288.07Z"/><g class="cls-67"><path class="cls-68" d="M10.46,286.09c.27.62,1-2,.76-3S10.19,285.47,10.46,286.09Z"/></g><g class="cls-69"><path class="cls-68" d="M10.6,285.5c.13.28.33-.1.5-.68-.18.88-.48,1.63-.64,1.27a5.46,5.46,0,0,1,.26-2.31A4.21,4.21,0,0,0,10.6,285.5Z"/></g><path class="cls-12" d="M25.17,329.11c.7-5.11,15.9-2.82,17,2.82S24.48,334.23,25.17,329.11Z"/><path class="cls-71" d="M24.65,327.88c.7-5.11,15.9-2.82,17,2.82S24,333,24.65,327.88Z"/><g class="cls-67"><path class="cls-68" d="M29.79,327.52c-1-1.28,5.38-.3,7.16,1.16S30.76,328.8,29.79,327.52Z"/></g><g class="cls-69"><path class="cls-68" d="M31.21,327.76c-.44-.57.61-.69,2-.51-2.07-.45-4-.48-3.46.27S33,329,35,329.21C33.31,328.86,31.62,328.31,31.21,327.76Z"/></g><path class="cls-81" d="M387.24,274.44s38.12,0,60.47-6.36c8.12-2.31,17.05.37,33.87,3.64,0,0,6.44-17.74,48.37-11,0,0-63.67-12.2-75.36-50.52C454.59,210.16,454.45,271.37,387.24,274.44Z"/><path class="cls-47" d="M361.12,98.2c2-.49.23-9.94-4.2-8.68S359.15,98.69,361.12,98.2Z"/><path class="cls-82" d="M479,143.18S449.87,153.85,437.76,124C437.76,124,449.47,180.92,479,143.18Z"/><path class="cls-81" d="M412.78,83.38c.88.05,1.76.11,2.63.18l-1.66-.14a76.29,76.29,0,0,1,13,2.27A6.29,6.29,0,0,0,434.19,81a6.38,6.38,0,0,0-4.74-7.45,84.18,84.18,0,0,0-17.3-2.59,6.24,6.24,0,0,0-3.87,10.86,7.17,7.17,0,0,0,4.5,1.6Z"/><path class="cls-81" d="M383.17,73.57A44,44,0,0,0,373,78.32a5.7,5.7,0,0,0-2.18,3.76,7.2,7.2,0,0,0,1,4.73,6.31,6.31,0,0,0,3.56,2.74,5.32,5.32,0,0,0,4.17-.74c.92-.57,1.85-1.1,2.8-1.6l-1.3.68a37.54,37.54,0,0,1,6.1-2.49,5.23,5.23,0,0,0,3.07-3,6.9,6.9,0,0,0-2.8-8.36,5.41,5.41,0,0,0-4.23-.51Z"/><path class="cls-83" d="M429.45,73.51c-.73-.19-1.46-.34-2.2-.51,3.31,1,7.8,4.85,2.62,6.73-5.56,2-24.87-3.19-22-6.76a6.25,6.25,0,0,0,.44,8.81,7.17,7.17,0,0,0,4.5,1.6c.46,0,.93.06,1.4.1l-.43-.06,1.66.14c-.41,0-.82-.06-1.23-.08a76.47,76.47,0,0,1,12.56,2.21A6.29,6.29,0,0,0,434.19,81,6.38,6.38,0,0,0,429.45,73.51Z"/><path class="cls-84" d="M375.06,83.45c-6.43.32-2.09-5.13-2.09-5.13a5.7,5.7,0,0,0-2.18,3.76,7.2,7.2,0,0,0,1,4.73,6.31,6.31,0,0,0,3.56,2.74,5.32,5.32,0,0,0,4.17-.74c.7-.44,1.41-.83,2.13-1.21-.21.1-.43.18-.63.29l1.3-.68c-.23.12-.44.26-.67.39a37.42,37.42,0,0,1,5.47-2.2,5.23,5.23,0,0,0,3.07-3,6.9,6.9,0,0,0-2.8-8.36,6.35,6.35,0,0,0-1.66-.59C391.39,76.19,381.47,83.13,375.06,83.45Z"/><path class="cls-85" d="M364.7,107.38c-2.11,13.26-4.86,31.38-8.1,54.7,1.09,17.43,6.3,30.36,18.56,33.27,46.69,11.06,111.84-9.47,90.34-22.21S439.39,137,434.08,118.47C434.08,118.47,383.33,163.68,364.7,107.38Z"/><path class="cls-86" d="M454.13,63c80,20.55,153.49,79.3,129.74,21.56-3.54-8.21-7.38-15-10.9-19.44-10.16-12.85-35.83-28.69-66.23-38.65,20.06,7.69,42.23,29,24.45,38.47-19.65,10.5-55.31-.36-96.37-8.09-37.75-7.11-76.08,12.41-63.53-3.62a122.73,122.73,0,0,0-26,53C352.29,79.91,382.39,44.54,454.13,63Z"/><path class="cls-87" d="M434.82,56.84c41.06,7.73,76.72,18.59,96.37,8.09,17.78-9.5-4.39-30.78-24.45-38.47,1.81.6,3.6,1.21,5.37,1.85C473.34,14.48,425.46,9.74,392.16,33.8A117.87,117.87,0,0,0,358,72.55a120,120,0,0,1,13.3-19.33C358.74,69.25,397.07,49.73,434.82,56.84Z"/><path class="cls-88" d="M428.13,191.3s-40.82,35.46-118.52,11.93a329.55,329.55,0,0,0-59.08-12.52c-.32-.05-.46-.06-.59-.07q-4.5-.48-9-.8l-.52,0c-2.75-.18-5.49-.3-8.21-.38l-.84,0-1,0c-2.38,0-4.76,0-7.12,0l-1.79,0c-2.86.07-5.7.2-8.51.42s-5.81.53-8.66.91L203,191q-3.44.48-6.8,1.14l-2.13.43q-3.09.66-6.1,1.45c-.65.17-1.3.33-1.94.51-2.58.73-5.13,1.52-7.62,2.41l-1.8.7c-.67.28-1,.49-1.4.67,33.69-10.69,73,6.11,107,23.76l.36.19c29.34,15.24,54.72,31.05,69.11,30.27,23.91,6.81,46.31,7,68-5.52,15.66-9,24.64-22.15,28.26-33.85C453.86,193.93,445.35,178.57,428.13,191.3Z"/><path class="cls-89" d="M419.8,175.44c-4.6,5.7-7.31,15.6-17.13,22.66a32.66,32.66,0,0,0,8.82-8.18c11.83-16.72,26.77-16.92,24.63-8.77C441.11,169.42,425.47,168.4,419.8,175.44Z"/><path class="cls-90" d="M501.69,200.24c-31.13-21.55-44.31-23.35-40.89-14.87C460.71,183.14,475.51,185.39,501.69,200.24Z"/><path class="cls-17" d="M424.52,31.81c4.45,2.57-21.16,9.3-19.26,3.72S419.18,28.72,424.52,31.81Z"/><path class="cls-17" d="M401,39.23c-3-1.27-1.36-6.41,2.22-3.09S404.57,40.75,401,39.23Z"/><path class="cls-91" d="M465.94,138.77a1.78,1.78,0,0,0,.46-.21c-.79,0-1.57-.05-2.41-.14-14.53-1.47-23.93-11.75-27-26.59,0,0-2,4.72.81,12.19,6.59,16.23,18.21,20.44,27.45,20.93C464.45,144.62,457.41,141.38,465.94,138.77Z"/></g></g></g></svg>