<svg xmlns="http://www.w3.org/2000/svg" xmlns:xlink="http://www.w3.org/1999/xlink" viewBox="0 0 22.19 10.19"><defs><style>.cls-1{isolation:isolate;}.cls-16,.cls-17,.cls-2,.cls-3{fill:#427184;}.cls-3{opacity:0.38;}.cls-16,.cls-17,.cls-3{mix-blend-mode:screen;}.cls-10,.cls-15,.cls-4,.cls-7{fill:#224756;}.cls-4{opacity:0.5;}.cls-10,.cls-15,.cls-4,.cls-6{mix-blend-mode:multiply;}.cls-5,.cls-6{fill:#777;}.cls-6{opacity:0.49;}.cls-8{fill:#326077;}.cls-9{fill:#a7afb1;opacity:0.62;}.cls-10{opacity:0.77;}.cls-11{fill:url(#radial-gradient);}.cls-12{fill:#0083ca;}.cls-13{fill:#6e599e;opacity:0.44;}.cls-14{fill:#fff;}.cls-15{opacity:0.32;}.cls-16{opacity:0.61;}</style><radialGradient id="radial-gradient" cx="25.85" cy="-32.24" r="0.66" gradientTransform="matrix(1.13, 0.37, -0.31, 0.95, -33.24, 23.79)" gradientUnits="userSpaceOnUse"><stop offset="0.01" stop-color="#fff"/><stop offset="0.32" stop-color="#6af8ff"/><stop offset="1" stop-color="#fff"/></radialGradient></defs><g class="cls-1"><g id="Layer_2" data-name="Layer 2"><g id="icons_animals"><path class="cls-2" d="M19.31,3.6c-.73,0-1.1-.09-1.52.59-.3.48-.52.76-1.14.79-.31,0-.62-.18-.51.3,0,.14.35.44.45.55A1.39,1.39,0,0,0,18,6.11C19,5.77,19,4.51,19.31,3.6Z"/><path class="cls-3" d="M18.51,3.68c-.87-.3-.48,2.42-2,1.52,0,.47.76.93,1.19.78C18.39,5.73,18.39,4.47,18.51,3.68Z"/><path class="cls-4" d="M19.31,3.6c-.52,0-.86-.06-1.16.17a6.26,6.26,0,0,0,0,1.16c0,.35-.49,1,.05.94a.86.86,0,0,0,.42-.16A8.06,8.06,0,0,0,19.31,3.6Z"/><path class="cls-5" d="M1.1.4c-1.53.19.44,1.68,1.1,1.82A15.44,15.44,0,0,0,4,2.32a7.85,7.85,0,0,0,1.37,0c.08-.86-.9-1-1.47-1.32Z"/><path class="cls-6" d="M3.91,1,1.1.4A1.29,1.29,0,0,0,.73.5c.31.21.64.38,1,.62a5.08,5.08,0,0,0,1,.73,6,6,0,0,0,1.47.09,2.64,2.64,0,0,1,1.1.43h.17C5.46,1.5,4.48,1.38,3.91,1Z"/><path class="cls-7" d="M4.2,5.27c-1.31,1,1.27,3.76,2.38,4,.57.15-.09-.45-.16-.78s.28-.69.29-1.09C6.77,6.19,5.15,5.45,4.2,5.27Z"/><path class="cls-4" d="M6.71,7.44a1.65,1.65,0,0,0-.66-1.32.48.48,0,0,0-.25.19c-.38.51.13,2.09.47,2.56a3.32,3.32,0,0,0,.38.46c.44.07-.17-.48-.23-.8S6.7,7.84,6.71,7.44Z"/><path class="cls-8" d="M19.4,3.46c-.63.42-.4,2.78-3,3.69C16,7.3,15,6.73,14.05,6a.36.36,0,0,1,.06-.29c.08-.1.38-.09.47-.15a2.26,2.26,0,0,0-1.32-.28,6.08,6.08,0,0,1-.69-.81C11.64,3.11,10.78,1.91,10,1.62A22.88,22.88,0,0,0,2.7,0c-.37,0-2.4-.1-2,.4.07.08.9.44,1.11.62a3.32,3.32,0,0,0,1,.76c.59.23,1.35,0,1.93.19a.75.75,0,0,1,.44.31C4.46,1.6,3,2.47,2.11,1.65A15.22,15.22,0,0,0,.8.61.67.67,0,0,0,.1.66C-.1.81,0,1.08.25,1.72A21.68,21.68,0,0,0,2.52,4.89,48.3,48.3,0,0,0,9.06,8.74,11.36,11.36,0,0,0,13.41,9.9,6.45,6.45,0,0,0,19,5.82,10.66,10.66,0,0,0,19.4,3.46Z"/><path class="cls-4" d="M19,5.82a14.4,14.4,0,0,0,.37-1.91c-.26.64-.49,1.43-.58,1.61a7.65,7.65,0,0,1-1.73,2.53,3.27,3.27,0,0,1-1.4.53c-1.52.14-3.11.24-4.06-1.09-.46-.65-.7-.89-1.46-.93a2.59,2.59,0,0,1-1.72-.94A14.32,14.32,0,0,0,6.5,4.12a6.12,6.12,0,0,0-3.38-1.4,3.08,3.08,0,0,0-1.91.5C1.75,4,2.35,4.7,2.52,4.89A48.3,48.3,0,0,0,9.06,8.74,11.36,11.36,0,0,0,13.41,9.9,6.45,6.45,0,0,0,19,5.82Z"/><path class="cls-9" d="M16.15,8.75c-1.57.34-2.72.7-4.27.09a10.82,10.82,0,0,1-4.54-3A12.68,12.68,0,0,1,6,4c-.34-.59-.65-1.51-1.32-1.78S3.14,2.25,2.43,2A8.34,8.34,0,0,1,.81,1,5.46,5.46,0,0,0,.07.69c-.15.15,0,.42.18,1A21.68,21.68,0,0,0,2.52,4.89,48.3,48.3,0,0,0,9.06,8.74,11.36,11.36,0,0,0,13.41,9.9a7.16,7.16,0,0,0,3.36-1.22A2.94,2.94,0,0,0,16.15,8.75Z"/><path class="cls-2" d="M10.85,6.9A5.65,5.65,0,0,0,9.36,4.84a3.86,3.86,0,0,0-1.25-.5c-.38-.11-.85-.55-1.25-.54-1,0,.27,1.58.48,2A5.57,5.57,0,0,1,7.7,7a4,4,0,0,0,1.08,1.7,7.73,7.73,0,0,0,3,1.47c.23,0-.51-.74-.59-1.28A19.08,19.08,0,0,0,10.85,6.9Z"/><path class="cls-2" d="M19.18,4a3,3,0,0,1,.73-1.28,1.58,1.58,0,0,1,.91-.59,1.28,1.28,0,0,0,.79-.35,1.14,1.14,0,0,0,.24-.41c0-.14.09-.34.27-.36a2,2,0,0,1,.05.49,3.87,3.87,0,0,1,0,.9,3.87,3.87,0,0,1-1.88,2.72c-.42.21-1.39.57-1.48.43A10,10,0,0,1,19.18,4Z"/><path class="cls-3" d="M11.42,4.73a5,5,0,0,0-1.79-2.8c-.87-.66-2-.57-3-.9C6.28.91,5.22.29,5.05.8s.88.9,1.19,1.06c.73.39.75.67,1.14,1.3A2.34,2.34,0,0,0,8.79,4a3,3,0,0,1,1.63,1.44C11.09,6.52,11.73,6.35,11.42,4.73Z"/><path class="cls-3" d="M13.13,6.7c0,2.73,4.63,1.78,5-.25-.88.25-1.45,1.12-2.52,1C15.12,7.35,13.2,5.17,13.13,6.7Z"/><path class="cls-3" d="M20.35,2.44c-.55.22-.68.81-.87,1.31-.13.35-.68,1.56,0,1.35S20.72,2.94,20.35,2.44Z"/><path class="cls-3" d="M.2.8c-.63.61,1.27,2.74,1.71,3.25a9.05,9.05,0,0,0,2.47,2c.63.36,1.27.76,1.87,1.15.37.24,1.09.89,1.14.21,0-.32-.43-.92-.58-1.18-.4-.7-.79-1.41-1.2-2.1A3.75,3.75,0,0,0,3.94,2.49C3.27,2.17,2.45,2.34,1.81,2,1.32,1.7.89.74.2.8Z"/><path class="cls-3" d="M7.35,4.27c-.41-.71-.88-.29-.58.36.22.47.7.76.88,1.25A14.43,14.43,0,0,0,8,7.42a3.91,3.91,0,0,0,1.05,1.2,6.46,6.46,0,0,0,1.44,1c-.74-.79-1.69-1.3-2-2.42-.16-.5,0-1.16-.21-1.63S7.47,5,7.35,4.27Z"/><path class="cls-3" d="M6.6,9.26a6,6,0,0,1-1.74-1.5,8.89,8.89,0,0,1-.92-1.82,0,0,0,0,0,0,0A4.57,4.57,0,0,0,6.58,9.31S6.63,9.27,6.6,9.26Z"/><path class="cls-3" d="M14.29,5.46a1.5,1.5,0,0,0-.35-.09,1.69,1.69,0,0,0-.39-.08c-.14,0-.14.21,0,.22a2.67,2.67,0,0,0,.4,0,1.22,1.22,0,0,0,.33,0S14.3,5.46,14.29,5.46Z"/><path class="cls-10" d="M6.48,2.58a.52.52,0,1,1-1-.39.52.52,0,1,1,1,.39Z"/><path class="cls-11" d="M6.36,2.54a.44.44,0,0,1-.55.29.45.45,0,0,1-.28-.56A.44.44,0,0,1,6.09,2,.43.43,0,0,1,6.36,2.54Z"/><path class="cls-12" d="M6.07,2.81a.39.39,0,0,1-.49-.24.38.38,0,0,1,.23-.49.39.39,0,0,1,.49.24A.38.38,0,0,1,6.07,2.81Z"/><path d="M6,2.71a.27.27,0,0,1-.33-.16.25.25,0,0,1,.16-.33.26.26,0,0,1,.33.16A.27.27,0,0,1,6,2.71Z"/><path class="cls-13" d="M6.17,2.69a.2.2,0,0,1-.26-.13A.22.22,0,0,1,6,2.29a.21.21,0,1,1,.14.4Z"/><path class="cls-14" d="M5.8,2.26a.12.12,0,0,1-.15-.07A.12.12,0,0,1,5.73,2a.11.11,0,0,1,.14.07A.12.12,0,0,1,5.8,2.26Z"/><path class="cls-14" d="M6.07,2.81a.07.07,0,0,1-.06,0,.06.06,0,0,1,0-.07s.06,0,.06,0A.05.05,0,0,1,6.07,2.81Z"/><path class="cls-4" d="M22.17,1.54a2,2,0,0,0-.05-.49c-.14,0-.19.14-.23.26a2.9,2.9,0,0,1,0,.72,4,4,0,0,1-.46,1.32,4.21,4.21,0,0,1-1.11,1.19A8,8,0,0,1,19,5.09a.21.21,0,0,0-.1.06,1,1,0,0,0-.07.44c.09.14,1.06-.22,1.48-.43a3.87,3.87,0,0,0,1.88-2.72A3.87,3.87,0,0,0,22.17,1.54Z"/><path class="cls-15" d="M12.57,4.44C11.64,3.11,10.78,1.91,10,1.62A22.88,22.88,0,0,0,2.7,0C2.52,0,2,0,1.47,0A5,5,0,0,0,2.87,1c1.29.58,2.73.33,4,.8S8.66,3.43,9.57,4.24a3.13,3.13,0,0,0,2.26.94,1.06,1.06,0,0,0,.94-.47Z"/><path class="cls-4" d="M14.05,6a.36.36,0,0,1,.06-.29c.08-.1.38-.09.47-.15l-.16-.08c-.82.11-1.56.27-.62,1.26.72.76,2.25,1.31,3.16.55.2-.17.32-.33.31-.51a4.58,4.58,0,0,1-.83.4C16,7.3,15,6.73,14.05,6Z"/><path class="cls-4" d="M10.85,6.9A5.65,5.65,0,0,0,9.36,4.84a3.86,3.86,0,0,0-1.25-.5c-.38-.11-.85-.55-1.25-.54h0A.79.79,0,0,0,7,4c.28.37,1,.29,1.18.76a.44.44,0,0,0-.43.2c.47.31.92.14,1.33.7A2.68,2.68,0,0,1,9.38,7.1c.09.78.66,1.12,1.06,1.72.21.3.27.67.45,1A1.45,1.45,0,0,0,11,10a2.14,2.14,0,0,0,.72.2c.23,0-.51-.74-.59-1.28A19.08,19.08,0,0,0,10.85,6.9Z"/><path class="cls-16" d="M12.72,7.88a.35.35,0,0,0-.24-.15.1.1,0,0,0-.12.15.74.74,0,0,0,.3.33.11.11,0,0,0,.16-.1A.37.37,0,0,0,12.72,7.88Z"/><path class="cls-16" d="M13.59,8.33h0c-.06-.09-.18,0-.09.09h0A.06.06,0,0,0,13.59,8.33Z"/><path class="cls-16" d="M12.34,8.62a.75.75,0,0,0-.56-.28.09.09,0,0,0-.08.13.69.69,0,0,0,.44.34.08.08,0,0,0,.1-.06h0C12.36,8.76,12.37,8.66,12.34,8.62Z"/><path class="cls-16" d="M13.14,8.85c-.07,0-.17-.11-.24-.09s-.06,0,0,.07h0a.05.05,0,0,0,0,.07l.19.07C13.16,9,13.21,8.88,13.14,8.85Z"/><path class="cls-16" d="M11.78,7.9a.54.54,0,0,0-.21-.28H11.5a.15.15,0,0,0-.07.13s0,0,0,.07,0,0,.07,0,0,0,0,0h0l.09.1C11.71,8,11.81,8,11.78,7.9Z"/><path class="cls-16" d="M14.33,8.83h-.1a.6.6,0,0,0-.54.15.08.08,0,0,0,.06.13A1,1,0,0,0,14.37,9C14.44,8.94,14.4,8.84,14.33,8.83Z"/><path class="cls-16" d="M14.85,8.28a.28.28,0,0,0-.22,0,.25.25,0,0,0-.14.13.06.06,0,1,0,0,.12.51.51,0,0,0,.39-.16A.06.06,0,0,0,14.85,8.28Z"/><path class="cls-16" d="M15.14,8.87l0,0C15,8.82,15,9,15.1,9l0,0S15.18,8.89,15.14,8.87Z"/><path class="cls-16" d="M16.22,8.06a.16.16,0,0,0-.15.1H16l-.21.07a.09.09,0,0,0,0,.17.59.59,0,0,0,.5-.2A.09.09,0,0,0,16.22,8.06Z"/><path class="cls-16" d="M17,8a.13.13,0,0,0-.15.11s0,.1.07.08a.14.14,0,0,0,.1-.1S17,8.05,17,8Z"/><path class="cls-16" d="M17.81,7.33a.06.06,0,0,0-.08,0c-.11,0-.23.15-.2.26l-.07.08a.06.06,0,0,0,.08.1.46.46,0,0,0,.27-.36h0Z"/><path class="cls-16" d="M11.32,8.15c0-.05-.11,0-.08.06s0,.12.11.15a.05.05,0,0,0,.08,0A.39.39,0,0,0,11.32,8.15Z"/><path class="cls-16" d="M8,8.1a37.82,37.82,0,0,1-4.79-3A10.08,10.08,0,0,1,.26.87h0A8.25,8.25,0,0,0,3.05,5,19.46,19.46,0,0,0,8,8.11S8,8.11,8,8.1Z"/><path class="cls-16" d="M8.11,8a39.69,39.69,0,0,1-4.59-3.1,11.2,11.2,0,0,1-3-4s0,0,0,0a9.72,9.72,0,0,0,2.89,4A23.43,23.43,0,0,0,8.09,8S8.12,8,8.11,8Z"/><path class="cls-16" d="M7.79,7.65C6.52,6.58,5,5.8,3.75,4.72A9.61,9.61,0,0,1,1.06,1.16s0,0,0,0A8.22,8.22,0,0,0,3.59,4.65a34.4,34.4,0,0,0,4.18,3S7.8,7.66,7.79,7.65Z"/><path class="cls-16" d="M7.89,7.35C5.73,5.56,2.92,4.4,1.7,1.7h0c1,2.75,4.05,4,6.16,5.7A0,0,0,0,0,7.89,7.35Z"/><path class="cls-16" d="M7.6,6.8C5.72,5.3,3.53,4.29,2.38,2.07h0c.83,2.28,3.38,3.41,5.18,4.79C7.59,6.89,7.64,6.83,7.6,6.8Z"/><path class="cls-16" d="M7.57,6.65A13,13,0,0,0,5.08,4.52,8.24,8.24,0,0,1,2.91,2.1h0A5.36,5.36,0,0,0,4.76,4.39,34.08,34.08,0,0,1,7.52,6.7S7.6,6.69,7.57,6.65Z"/><path class="cls-16" d="M7.45,6.29a7.12,7.12,0,0,0-2-1.7A5.29,5.29,0,0,1,3.34,2.21a0,0,0,0,0,0,0,3.56,3.56,0,0,0,1.5,2A18.49,18.49,0,0,1,7.41,6.32S7.47,6.31,7.45,6.29Z"/><path class="cls-16" d="M7,5.6A12.79,12.79,0,0,0,5.22,3.9,3.72,3.72,0,0,1,3.76,2.17h0A2.4,2.4,0,0,0,4.83,3.7C5.57,4.31,6.25,5,7,5.62,7,5.64,7,5.62,7,5.6Z"/><path class="cls-16" d="M6.85,5.25a16.61,16.61,0,0,0-1.2-1.32L5,3.25c-.23-.24-.83-.71-.76-1.08h0c-.19.46.58,1,.85,1.28A25.06,25.06,0,0,0,6.83,5.27S6.86,5.26,6.85,5.25Z"/><path class="cls-16" d="M6.11,4.26a12.87,12.87,0,0,0-.75-1.07c-.07-.09-.78-.9-.71-1h0c-.16.19.3.61.39.74.34.46.66.95,1,1.38A0,0,0,0,0,6.11,4.26Z"/><path class="cls-16" d="M16.42,8.89a7.47,7.47,0,0,1-5.21-.15s0,0,0,0a6.28,6.28,0,0,0,5.23.16S16.44,8.88,16.42,8.89Z"/><path class="cls-16" d="M15,9.43a5.46,5.46,0,0,1-3.69-.35h0A3.09,3.09,0,0,0,13,9.6a4.31,4.31,0,0,0,2-.15S15,9.43,15,9.43Z"/><path class="cls-16" d="M14.44,9.74a8.12,8.12,0,0,1-2.86-.31h0a4.58,4.58,0,0,0,2.87.32S14.45,9.74,14.44,9.74Z"/><path class="cls-17" d="M6.32,3.57a1.8,1.8,0,0,1-.72-.8,3.35,3.35,0,0,0-.29-.44c-.31-.5-1.1-.57-1.62-.6a2,2,0,0,1-1.1-.23C2.37,1.35,2.2,1.16,2,1A13.79,13.79,0,0,1,.71.2s0,0,0,0c.16.32.53.43.8.61s.72.66,1.13.88a2.67,2.67,0,0,0,1.16.18,1.85,1.85,0,0,1,1.54.64,3.07,3.07,0,0,0-.26-.25A2.17,2.17,0,0,0,3.58,2a2.94,2.94,0,0,1-2.19-.75C1,1,.65.51.12.69c0,0,0,.06,0,.06.63-.05,1.2.77,1.73,1.07a2.71,2.71,0,0,0,1.42.36c.67,0,1.36-.2,1.89.35.33.35.52.83,1,1.05a0,0,0,0,0,0,0l.15.05A0,0,0,0,0,6.32,3.57Z"/><path class="cls-17" d="M6.72,2.42A.7.7,0,0,0,6,1.75s0,0,0,0c.3.08.56.26.56.6a.56.56,0,0,1-.15.41c-.09.09-.22.11-.32.18a0,0,0,0,0,0,.06C6.48,3.19,6.74,2.75,6.72,2.42Z"/><path class="cls-17" d="M10.88,9.67A4.87,4.87,0,0,1,8.13,7.36c-.26-.53-.3-1.13-.56-1.65s-.9-1-.84-1.82c0,0,0,0,0,0-.28.57.16,1.09.46,1.54A22.34,22.34,0,0,1,8,7.52a4,4,0,0,0,2.88,2.19S10.9,9.68,10.88,9.67Z"/><path class="cls-17" d="M4.79,7.7A4.58,4.58,0,0,1,4.29,7,6.49,6.49,0,0,1,4,6H4a2,2,0,0,0,.77,1.72S4.8,7.71,4.79,7.7Z"/><path class="cls-17" d="M14.07,5.45c-.06-.22-.45-.17-.61-.11s0,.14,0,.12a.86.86,0,0,1,.32,0,.43.43,0,0,0,.22,0S14.08,5.47,14.07,5.45Z"/><path class="cls-17" d="M18,5.88a1.08,1.08,0,0,1-1.12,0,2.52,2.52,0,0,1-.64-.78s0,0,0,0c.17.72,1.17,1.46,1.84.88A0,0,0,0,0,18,5.88Z"/><path class="cls-17" d="M20,2.68a2,2,0,0,0-.71,1,7.37,7.37,0,0,0-.52,1.89s.05,0,.06,0c.32-1,.38-2.2,1.18-2.93Z"/><path class="cls-17" d="M11.33,7.28a.28.28,0,0,0-.14-.1s0,0,0,0a.35.35,0,0,0,.08.13s.07.07.1,0S11.35,7.3,11.33,7.28Z"/><path class="cls-17" d="M4,3.66h0a.58.58,0,0,0-.17-.18.06.06,0,0,0-.11.06,0,0,0,0,0,0,.06c0,.07.09.2.18.19s0,0,0,0S4,3.72,4,3.66Z"/><path class="cls-17" d="M6,5c.07-.25-.25-.46-.45-.52a.1.1,0,0,0-.12.12.41.41,0,0,0,.15.25.68.68,0,0,0,.14.23.16.16,0,0,0,.26,0A.08.08,0,0,0,6,5Z"/><path class="cls-17" d="M2.1,2.93a1,1,0,0,0-.23-.36.08.08,0,0,0-.13.05.32.32,0,0,0,.2.31L2,3A.06.06,0,0,0,2.1,2.93Z"/><path class="cls-17" d="M4.48,5.63A.71.71,0,0,0,4,5.08a.1.1,0,0,0-.12.12.45.45,0,0,0,.3.34,1.57,1.57,0,0,0,.19.18C4.4,5.78,4.5,5.73,4.48,5.63Z"/><path class="cls-17" d="M6,6.23a.13.13,0,0,0,0,.06.06.06,0,0,0,.1,0,.07.07,0,0,0,0-.06C6.15,6.14,6,6.14,6,6.23Z"/><path class="cls-17" d="M4.5,2.48a.1.1,0,0,0-.12.1.57.57,0,0,0,.23.5h0a.57.57,0,0,0,.26.12A.09.09,0,0,0,5,3.11.72.72,0,0,0,4.5,2.48Z"/><path class="cls-17" d="M7,6.08,6.92,6a.12.12,0,0,0,0-.11.13.13,0,0,0-.21-.07.17.17,0,0,0,0,.24A.18.18,0,0,0,7,6.19.06.06,0,0,0,7,6.08Z"/><path class="cls-17" d="M7.71,7.59a1.08,1.08,0,0,0-.6-.49A.11.11,0,0,0,7,7.19a.08.08,0,0,0,0,.08.82.82,0,0,0,.64.47A.1.1,0,0,0,7.71,7.59Z"/><path class="cls-17" d="M2.78,3.92a.08.08,0,0,0-.12,0,.26.26,0,0,0,.11.25.65.65,0,0,0,.16.21.06.06,0,0,0,.11,0A.67.67,0,0,0,2.78,3.92Z"/><path class="cls-17" d="M2.93,2.66l0-.1a0,0,0,0,0-.06,0,.33.33,0,0,0,0,.14A.11.11,0,0,0,3,2.86a.05.05,0,0,0,0,0H3A.1.1,0,0,0,2.93,2.66Z"/><path class="cls-17" d="M.89,1.9a1.22,1.22,0,0,0-.14-.34,1.12,1.12,0,0,0-.13-.24.1.1,0,0,0-.17,0,.67.67,0,0,0,.11.5A1.63,1.63,0,0,0,.73,2,.08.08,0,0,0,.86,2,.17.17,0,0,0,.89,1.9Z"/><path class="cls-17" d="M12.64,9.45l-.11,0,0,0a0,0,0,0,0,0-.06.7.7,0,0,1-.25,0,.08.08,0,0,0-.08.12l0,0a.62.62,0,0,0,.4.1C12.67,9.57,12.71,9.48,12.64,9.45Z"/><path class="cls-17" d="M14.34,9.46a.51.51,0,0,0-.49.08.07.07,0,0,0,.07.12l.07,0a.35.35,0,0,0,.38-.06C14.42,9.54,14.39,9.48,14.34,9.46Z"/><path class="cls-17" d="M15.57,9a0,0,0,0,0,0,.09A0,0,0,1,0,15.57,9Z"/><path class="cls-17" d="M3.82,2.42v-.1a.07.07,0,0,0-.09-.07l0,0a.07.07,0,0,0-.11,0,.32.32,0,0,0,.13.44h0l0,0a.07.07,0,0,0,.1-.06A.79.79,0,0,0,3.82,2.42Z"/><path class="cls-17" d="M5.48,5.87l0,0A.36.36,0,0,0,5,5.59a.09.09,0,0,0,0,.16.84.84,0,0,0,.24.18A.6.6,0,0,0,5.33,6a.11.11,0,0,0,.11,0A.08.08,0,0,0,5.48,5.87Z"/></g></g></g></svg>