<svg xmlns="http://www.w3.org/2000/svg" viewBox="0 0 18.47 13.62"><defs><style>.cls-1{isolation:isolate;}.cls-16,.cls-17,.cls-18,.cls-2{fill:#92a5ac;}.cls-3{fill:#a2a8aa;}.cls-3,.cls-6,.cls-9{opacity:0.53;}.cls-4{fill:#5e6364;}.cls-5{fill:#6e8287;}.cls-6{fill:#151316;}.cls-21,.cls-7,.cls-9{fill:#f6fefd;}.cls-7{opacity:0.29;}.cls-21,.cls-7{mix-blend-mode:screen;}.cls-8{fill:#738b91;}.cls-10{fill:#7f9499;opacity:0.44;}.cls-11,.cls-14{fill:#fff;}.cls-11{opacity:0.72;}.cls-12,.cls-13{fill:#41575f;}.cls-12{opacity:0.51;}.cls-13{opacity:0.7;}.cls-14{opacity:0.82;}.cls-15,.cls-20{fill:#ee918e;}.cls-16{opacity:0.37;}.cls-16,.cls-17,.cls-18,.cls-19,.cls-20,.cls-23{mix-blend-mode:multiply;}.cls-17{opacity:0.84;}.cls-18,.cls-19,.cls-21{opacity:0.59;}.cls-19,.cls-23{fill:#5a6d72;}.cls-22{fill:#f7faf8;}.cls-23{opacity:0.47;}</style></defs><g class="cls-1"><g id="Layer_2" data-name="Layer 2"><g id="icons_animals"><path class="cls-2" d="M3.19,7.11l-.59.17A3.39,3.39,0,0,1,1.41,8C1,8.2.38,8.37.14,8.88A1.57,1.57,0,0,0,0,9.34c.08.09.3-.06.5-.11s.25.07.41,0,.29-.17.42-.23c.36-.16.7-.05,1-.14.06,0,.05-.14.09-.16a1.37,1.37,0,0,1,.29-.07,3.33,3.33,0,0,1,.54-.07,5.93,5.93,0,0,0,1-.13c.16-.05.6-.06.66-.23C5.14,7.83,3.56,7.19,3.19,7.11Z"/><path class="cls-3" d="M3.19,7.11C2.22,7.4.4,7.86.05,9c-.18.58.18.3.47.22s.25.07.41,0,.29-.17.42-.23c.36-.16.7-.05,1-.14.06,0,.05-.14.09-.16a1.37,1.37,0,0,1,.29-.07,3.33,3.33,0,0,1,.54-.07,5.93,5.93,0,0,0,1-.13c.16-.05.6-.06.66-.23C5.14,7.83,3.56,7.19,3.19,7.11Z"/><path class="cls-4" d="M5,8.25v0l-.16,0c-.46-.07-1,.24-1.46.22a2.83,2.83,0,0,0-.82,0c-.27.09-.37.34-.63.41s-.48,0-.75.08a1,1,0,0,1-.78,0c.11-.53.77-.72,1.22-.88.68-.26,1.34-.52,2-.81l-.43-.14C2.22,7.4.4,7.86.05,9c-.18.58.18.3.47.22s.25.07.41,0,.29-.17.42-.23c.36-.16.7-.05,1-.14.06,0,.05-.14.09-.16a1.37,1.37,0,0,1,.29-.07,3.33,3.33,0,0,1,.54-.07,5.93,5.93,0,0,0,1-.13C4.48,8.43,4.92,8.42,5,8.25Z"/><path class="cls-2" d="M12.24,9.18H12.1c.12.3.25.66.38.93.21-.2.41-.48.62-.7C13.7,8.79,12.6,9.19,12.24,9.18Z"/><path class="cls-5" d="M12.41,8a4.85,4.85,0,0,0,.66,0c.19,0,.34-.16.53-.17a5.21,5.21,0,0,0-.06.7,1,1,0,0,1-.83-.4Z"/><path class="cls-5" d="M7.83,3.47c.33-.13.75,0,1.08-.11S9.5,3,9.8,2.89s2-.94,2-.52-.72.45-.55.86c-.55.21-.11.18-.23.57,0,.12-.21.17-.25.27s.11.13.09.17-.14.08-.16.13c-.07.29-.13.67-.18,1s-.15.43-.49.4-.55-.33-.78-.5A6.28,6.28,0,0,1,8.5,4.7,7.37,7.37,0,0,1,7.83,3.47Z"/><path class="cls-6" d="M9.81,2.89a1.18,1.18,0,0,1,.37.09c.41.24,0,.25-.08.59s.19.24,0,.57-.56.38-.67.63a.91.91,0,0,0,.26.8.67.67,0,0,0,.72.07.85.85,0,0,0,.09-.27c.05-.33.11-.71.18-1,0,0,.14-.06.16-.13s-.11-.14-.09-.17S11,3.92,11,3.8c.12-.39-.32-.36.23-.57-.17-.41.54-.53.55-.86S10.08,2.76,9.81,2.89Z"/><path class="cls-7" d="M9.8,2.89c-.3.14-.58.35-.89.47a4.3,4.3,0,0,1-1,.07.8.8,0,0,0,.44.22c1,.16,1.45-.63,2.23-1a8.45,8.45,0,0,0,1-.43A7,7,0,0,0,9.8,2.89Z"/><path class="cls-8" d="M1.88,6.71a3.42,3.42,0,0,1-.55-1.37c0-.54.26-.45.11-1.43A3.82,3.82,0,0,1,2,1.24C2.41.85,2.74-.31,3.13.08A12.5,12.5,0,0,0,5.19,1.24,24,24,0,0,1,9,3.77,13.25,13.25,0,0,1,12,7.34a3,3,0,0,0,2,1c.24,0,.77-.67,1.52-1.42s1.66-1.7,3-1.3c0,0-.43.16-.43.4s.34,1.09-.19.88-.85-.19-1.46.42a3.43,3.43,0,0,0-.56,3.31A5.77,5.77,0,0,0,17,12.27c.25.25-1.34,0-2-.63s-.61-2.37-1.52-2.37-1.4.39-2.87.39A13.25,13.25,0,0,1,5.49,8.9,12.06,12.06,0,0,1,1.88,6.71Z"/><path class="cls-9" d="M12.87,9.22c-.28-.06-.51-.23-.77-.3a1.53,1.53,0,0,0-.89.17.84.84,0,0,1-.34-.19,3.33,3.33,0,0,0-.39-.24,1.15,1.15,0,0,1-.59.2,1.06,1.06,0,0,1-.79-.17C9,8.62,9.07,8.46,9,8.4s-.21,0-.3-.08c-.54-.29-.88-.35-.93-1,0-.42,0-.2-.21-.44s-.22-.09-.21-.48,0-.65-.34-1a.23.23,0,0,1-.17-.14c-.07-.16.22-1-.4-.77-.15-.87-1.07-.24-1.43-.7-.08-.1,0-.27-.12-.35s-.24-.08-.32-.11c-.3-.12-.38-.16-.44-.5C4,2.38,4.05,2,3.61,1.71a1.66,1.66,0,0,0-2,.22,4.39,4.39,0,0,0-.21,2c.15,1-.11.89-.11,1.43a3.42,3.42,0,0,0,.55,1.37A12.06,12.06,0,0,0,5.49,8.9a13.25,13.25,0,0,0,5.08.76,26.2,26.2,0,0,0,2.77-.38C13.2,9.25,13,9.25,12.87,9.22Z"/><path d="M5.46,3.23c.07.35.33.6.6.57a.56.56,0,0,0,.36-.7c-.07-.35-.33-.61-.6-.57S5.4,2.88,5.46,3.23Z"/><path class="cls-10" d="M6.25,3.45a.19.19,0,0,1-.32,0,.37.37,0,0,1-.08-.42A.2.2,0,0,1,6.17,3,.37.37,0,0,1,6.25,3.45Z"/><path class="cls-11" d="M6.33,3.57a0,0,0,0,1,0,0,.07.07,0,0,1,0-.07,0,0,0,0,1,.06,0A.09.09,0,0,1,6.33,3.57Z"/><path class="cls-12" d="M5.92,2.57a.55.55,0,0,1,.41.29.62.62,0,0,1,0,.56s0,0,0,0a.7.7,0,0,0,0-.53.65.65,0,0,0-.4-.3Z"/><path class="cls-13" d="M5.49,2.84h0a.94.94,0,0,0,.06.64.55.55,0,0,0,.43.3H6a.48.48,0,0,1-.42-.26A.82.82,0,0,1,5.49,2.84Z"/><path class="cls-14" d="M5.73,3.12a.11.11,0,0,1-.18,0,.19.19,0,0,1,0-.23.1.1,0,0,1,.17,0A.18.18,0,0,1,5.73,3.12Z"/><path class="cls-15" d="M1.63,4.85c-.17.3.23.7.53.8a1.1,1.1,0,0,0,.94-.19,4,4,0,0,1,2.13-.62c-.45-.62-1.19-.32-1.75,0S1.74,5.43,1.63,4.85Z"/><path class="cls-16" d="M14,9.2c.56-.67-.58-.33-.88-.26A7.44,7.44,0,0,1,8.21,8,6.92,6.92,0,0,1,6.66,6.51c-.42-.43-1.2-1-1.75-.56-.3.22-.42.54-.8.69a2.29,2.29,0,0,1-1.72-.19c-.18-.08-.53-.28-.87-.4a5,5,0,0,0,.36.66A12.06,12.06,0,0,0,5.49,8.9a13.25,13.25,0,0,0,5.08.76c1.47,0,2-.39,2.87-.39a.57.57,0,0,1,.37.13A.9.9,0,0,0,14,9.2Z"/><path class="cls-5" d="M8.33,7.78A1.08,1.08,0,0,1,9.71,7.4a1.13,1.13,0,0,1,.43.54c.11.22.29.36.41.57s0,.26.11.38.18.12.23.2a2.54,2.54,0,0,1,.21.82c.18.64.41,1.29.65,1.91s.8,1.22.78,1.76a.54.54,0,0,1-.51-.05c-.07,0-.13-.2-.15-.21s-.19,0-.24-.09-.31-.24-.36-.34c-.16-.28-.11-.44-.33-.66a2.23,2.23,0,0,1-.36-.56c-.14-.26-.46-.39-.56-.69s.06-.41-.12-.64c-.05-.07-.18-.08-.24-.16s-.05-.22-.09-.3a4.63,4.63,0,0,0-.37-.54c-.11-.11-.59-.16-.35-.46-.14,0-.37-.09-.39-.27s.23-.19.26-.31c.1-.29-.08-.08-.22-.19A.42.42,0,0,1,8.33,7.78Z"/><path class="cls-6" d="M11.75,11.82a4,4,0,0,1-.15-.4c-.17.29-.44.18-.66-.11a17.35,17.35,0,0,1-1.09-2C9.63,9,9.18,7.76,8.73,7.65a.44.44,0,0,0-.36.07l0,.06a.42.42,0,0,0,.17.33c.14.11.32-.1.22.19,0,.12-.27.12-.26.31s.25.27.39.27c-.24.3.24.35.35.46a4.63,4.63,0,0,1,.37.54c0,.08,0,.23.09.3s.19.09.24.16c.18.23,0,.36.12.64s.42.43.56.69a2.23,2.23,0,0,0,.36.56c.22.22.17.38.33.66.05.1.26.24.36.34s.18,0,.24.09.08.16.15.21a.54.54,0,0,0,.51.05C12.55,13,12,12.34,11.75,11.82Z"/><path class="cls-6" d="M18.47,5.64c-1.32-.4-2.24.55-3,1.3l-.67.69c.28,0,1-.68,1.23-.83s.86-.62,1.29-.56c0,.54-1,.83-1.37,1.21s-.26,1-.36,1.5a5.84,5.84,0,0,0,0,1.91c.1.91-.55.38-.91.07-.12-.11-.13-.22-.19-.23a2.55,2.55,0,0,0,.5.94c.67.67,2.26.88,2,.63a5.77,5.77,0,0,1-1.14-1.62,3.43,3.43,0,0,1,.56-3.31c.61-.61.92-.63,1.46-.42S18,6.27,18,6,18.47,5.64,18.47,5.64Z"/><path class="cls-17" d="M13.93,8.45l.08-.1h0a3,3,0,0,1-2-1A13.25,13.25,0,0,0,9,3.77,24,24,0,0,0,5.19,1.24,12.5,12.5,0,0,1,3.13.08l0,0a7.62,7.62,0,0,0,.76,1,9.37,9.37,0,0,0,1,.8c.45.28,1.08.28,1.5.64a4.26,4.26,0,0,1,.83,1.37A5.4,5.4,0,0,0,9.56,6.85c.49.29.87.69,1.35,1a7.35,7.35,0,0,0,1.62.6C13,8.57,13.52,8.88,13.93,8.45Z"/><path class="cls-18" d="M18.47,5.64c-1.32-.4-2.24.55-3,1.3-.42.42-.77.81-1,1.08,0,.28.14.43.17.67a1.29,1.29,0,0,1-.16.79c-.13.25-.2.28-.34.32.28.55.41,1.41.84,1.84.67.67,2.26.88,2,.63a5.77,5.77,0,0,1-1.14-1.62,3.43,3.43,0,0,1,.56-3.31c.61-.61.92-.63,1.46-.42S18,6.27,18,6,18.47,5.64,18.47,5.64Z"/><path class="cls-7" d="M4.23,1.66C3.63,1.17,3.31.31,2.9,0,2.6.12,2.33.93,2,1.24a3.82,3.82,0,0,0-.58,2.67c0,.15,0,.27,0,.38A1.56,1.56,0,0,0,3,4.45c.64-.2,1.71-.47,2-1.2.07-.2,0-.44.08-.65s.26-.37.23-.47S4.45,1.84,4.23,1.66Z"/><path class="cls-19" d="M3.41,1.38c.19-.18.1-.87-.25-.67s0,.93.29.62Z"/><path class="cls-19" d="M2,1.51A1.09,1.09,0,0,0,2.51.8c-.24,0-.41.36-.48.58Z"/><path class="cls-7" d="M5.31,4.86c-.27,0-.68.3-.94.41s-.72.24-1.08.38a1.59,1.59,0,0,1-1.95-.47.81.81,0,0,0,0,.16,2.3,2.3,0,0,0,.29.91,3.36,3.36,0,0,0,3,0C5,6.09,6.31,5,5.31,4.86Z"/><path class="cls-7" d="M12.37,13.62l0-.1c-.17-.33-.44-.41-.68-.63s-.28-.56-.45-.85-.43-.48-.59-.72a5.59,5.59,0,0,1-.35-1c-.14-.36-.44-.48-.65-.78s-.15-.77-.23-1.13a1.71,1.71,0,0,0-.58-1,1.2,1.2,0,0,0-.47.4.42.42,0,0,0,.17.33c.14.11.32-.1.22.19,0,.12-.27.12-.26.31s.25.27.39.27c-.24.3.24.35.35.46a4.63,4.63,0,0,1,.37.54c0,.08,0,.23.09.3s.19.09.24.16c.18.23,0,.36.12.64s.42.43.56.69a2.23,2.23,0,0,0,.36.56c.22.22.17.38.33.66.05.1.26.24.36.34s.18,0,.24.09.08.16.15.21A.56.56,0,0,0,12.37,13.62Z"/><path class="cls-7" d="M15.49,6.94a16.11,16.11,0,0,1-1.36,1.35c.29.4,1-.76,1.26-1A10.19,10.19,0,0,1,16.8,6a5.59,5.59,0,0,1,.62-.39A4.28,4.28,0,0,0,15.49,6.94Z"/><path class="cls-7" d="M13.79,9.38c.55.38.6,1.69,1.17,2.26a3.21,3.21,0,0,0,1.69.72,1.89,1.89,0,0,0-.49-.25c-1-.45-1.2-1.14-1.62-2.1C14.41,9.7,14.17,9.14,13.79,9.38Z"/><path class="cls-2" d="M8.33,5.4c.17-.36.56-1.84-.19-1.84C8.07,4.73,7.91,6.13,6.89,6.9,7.29,7.15,8,6,8.33,5.4Z"/><path class="cls-2" d="M8.73,5.83C9,5.37,9.39,4.35,8.81,4A5,5,0,0,1,8.22,5.9a6.68,6.68,0,0,1-.93,1.3C7.6,7.38,8.42,6.45,8.73,5.83Z"/><path class="cls-20" d="M3.48,4.83c-.42.22-1.74.6-1.85,0a.36.36,0,0,0,0,.11,1.1,1.1,0,0,0,1.06.34,15,15,0,0,1,1.72-.56,1.64,1.64,0,0,1,.69.11h.17C4.78,4.22,4,4.52,3.48,4.83Z"/><path class="cls-20" d="M4.81,4.85c-.06-.08-.53,0-.62,0a6.13,6.13,0,0,0-1.57.65,1,1,0,0,1-1-.37,1,1,0,0,0,.55.52,1.1,1.1,0,0,0,.94-.19,3.89,3.89,0,0,1,1.71-.59Z"/><path class="cls-2" d="M7.68,7.59a2.31,2.31,0,0,0,1.18-.84,2.25,2.25,0,0,0,.63-1.39,1.43,1.43,0,0,0-.16-.84,2.22,2.22,0,0,1-.25,1A10.38,10.38,0,0,1,7.68,7.59Z"/><path class="cls-2" d="M6.66,6.9c.42-.16.75-1,.92-1.39A4.2,4.2,0,0,0,7.92,4c0-.24,0-.57-.25-.69A7.86,7.86,0,0,1,7.25,5.5,14.16,14.16,0,0,0,6.66,6.9Z"/><path class="cls-18" d="M7.87,3.43h0A4.32,4.32,0,0,1,6.74,6.84s0,0,0,0c.24,0,.38-.33.5-.52a6.08,6.08,0,0,0,.46-.92A2.83,2.83,0,0,0,7.87,3.43Z"/><path class="cls-18" d="M8.55,3.75h0a3.56,3.56,0,0,1-.33,1.79A4,4,0,0,1,7.14,6.92s0,.09,0,.08a1.42,1.42,0,0,0,.6-.54,5.42,5.42,0,0,0,.54-.86A2.4,2.4,0,0,0,8.55,3.75Z"/><path class="cls-18" d="M9,4.15H9a4.48,4.48,0,0,1-.06,1,3.57,3.57,0,0,1-.34.81,3.8,3.8,0,0,1-.5.69c-.2.21-.45.36-.63.59a0,0,0,0,0,0,0A2.9,2.9,0,0,0,8.79,5.89,2.31,2.31,0,0,0,9,4.15Z"/><path class="cls-18" d="M9.45,4.62h0c0,.32,0,.64-.06,1A2.43,2.43,0,0,1,9,6.38a4.76,4.76,0,0,1-1.21,1.2s0,.07,0,.06a2.41,2.41,0,0,0,1.3-1.18A2.47,2.47,0,0,0,9.45,4.62Z"/><path class="cls-18" d="M7.63,3.51c-.07.28,0,.57-.11.86s-.13.48-.19.72a10.38,10.38,0,0,1-.57,1.49s0,0,0,0a3.33,3.33,0,0,0,.6-1.39c.07-.27.16-.55.21-.82s0-.59.06-.88Z"/><path class="cls-18" d="M3.31.74s0,0,0,0a.33.33,0,0,0-.21.34c0,.1,0,.34.16.35a0,0,0,0,0,0,0c0-.09-.07-.2-.08-.29A.29.29,0,0,1,3.27.83s0,.05,0,.08.07,0,.07,0A.28.28,0,0,0,3.31.74Z"/><path class="cls-18" d="M2.43.82c-.06,0-.15.09-.19.13s-.3.31-.24.49c0,0,0,0,0,0a1.17,1.17,0,0,1,.14-.3A.61.61,0,0,1,2.3,1L2.39.92s0,0,0,0,.06,0,.07,0S2.49.83,2.43.82Z"/><path class="cls-18" d="M5.06,4.63c-.32-.51-1.11-.14-1.52,0a5.36,5.36,0,0,1-1,.36.71.71,0,0,1-.88-.25s0,0,0,0c.06.61.89.42,1.26.3s.65-.27,1-.41A1.5,1.5,0,0,1,5,4.68S5.08,4.66,5.06,4.63Z"/><path class="cls-18" d="M5.66,2.58c.13-.07.27,0,.4-.06s0,0,0,0a.46.46,0,0,0-.48,0,.53.53,0,0,0-.28.45c0,.36.15,1.14.65,1a.06.06,0,0,0,0-.1c-.14-.11-.28-.16-.37-.31A.91.91,0,0,1,5.48,3,.48.48,0,0,1,5.66,2.58Z"/><path class="cls-7" d="M3.56,1A.43.43,0,0,0,3.41.61a.19.19,0,0,0-.29.07s0,0,0,0,.16,0,.23,0A.38.38,0,0,1,3.44,1c0,.12,0,.48-.2.41s-.09.07,0,.1C3.5,1.59,3.58,1.14,3.56,1Z"/><path class="cls-7" d="M2.52.77s-.06,0-.06,0a.65.65,0,0,1-.11.45.41.41,0,0,1-.18.19.31.31,0,0,1-.25,0,0,0,0,0,0,0,0C2.15,1.82,2.74,1.05,2.52.77Z"/><path class="cls-21" d="M2.92,0c-.16,0-.27.16-.34.28a.85.85,0,0,0-.14.45s0,0,0,0A3.18,3.18,0,0,0,2.62.44c.06-.12.15-.28.3-.29S3,0,2.92,0Z"/><path class="cls-21" d="M5.69,5.18c-.58-.5-1.54-.08-2.11.23-.41.22-1,.53-1.45.28a2.77,2.77,0,0,1-.67-.56s-.07,0-.07,0c-.06.27.21.48.39.64a1.06,1.06,0,0,0,1,.23A6,6,0,0,0,4,5.46a3.21,3.21,0,0,1,1.65-.22S5.71,5.2,5.69,5.18Z"/><path class="cls-21" d="M6.07,2.44s0,0,0,0c.11.21.33.32.4.57A.7.7,0,0,1,6,3.9S6,4,6.05,4C6.79,3.84,6.7,2.67,6.07,2.44Z"/><path class="cls-21" d="M11.36,2.37a2,2,0,0,0-1.26.51,3.07,3.07,0,0,1-1.24.73s0,0,0,0c.34.14.77-.24,1-.44a4,4,0,0,1,.62-.46c.27-.15.59-.21.86-.35C11.37,2.38,11.37,2.37,11.36,2.37Z"/><path class="cls-21" d="M2.56,7.43c-.29.12-.55.3-.84.41s-.54.18-.79.3a1.72,1.72,0,0,0-.89,1h0A2.09,2.09,0,0,1,1.29,8.1a3,3,0,0,0,1.29-.63S2.58,7.42,2.56,7.43Z"/><path class="cls-21" d="M9.64,7.38c-.23-.44-1,0-1.18.29h0A1.33,1.33,0,0,1,9,7.36a.78.78,0,0,1,.6,0S9.65,7.39,9.64,7.38Z"/><path class="cls-21" d="M12.39,13.48c-.23-.1-.4-.38-.56-.55a3.33,3.33,0,0,1-.51-.79,3.62,3.62,0,0,0-.5-.6,2.23,2.23,0,0,1-.41-1,1.61,1.61,0,0,0-.29-.7c-.23-.28-.52-.38-.63-.76-.16-.58,0-1.19-.48-1.65,0,0,0,0,0,0A2.54,2.54,0,0,1,9.3,8.55a2.34,2.34,0,0,0,.19.86c.15.28.48.4.64.68a5.74,5.74,0,0,1,.28,1,1.81,1.81,0,0,0,.5.66,2.17,2.17,0,0,1,.49.74,2.16,2.16,0,0,0,.48.61,1.17,1.17,0,0,0,.5.41Z"/><path class="cls-21" d="M9.59,7.17c-.27-.3-.79-.08-1,.17h0A3.71,3.71,0,0,1,9,7.15a1,1,0,0,1,.53.06S9.61,7.19,9.59,7.17Z"/><path class="cls-21" d="M16.58,6.12c-.88.61-1.52,1.49-2.35,2.16h0c.45-.08.74-.53,1-.84s.94-.81,1.35-1.29C16.62,6.14,16.6,6.11,16.58,6.12Z"/><path class="cls-22" d="M1.8,4.85c-.12.1-.1.41-.1.41a.82.82,0,0,0,.22.24A1.93,1.93,0,0,1,1.8,4.85Z"/><path class="cls-22" d="M2.63,4.93a1.23,1.23,0,0,0,0,.71L3,5.47A2.39,2.39,0,0,1,2.63,4.93Z"/><path class="cls-22" d="M3.68,4.46a2.06,2.06,0,0,0-.05.66L4.07,5A1.27,1.27,0,0,1,3.68,4.46Z"/><path class="cls-22" d="M2.24,4.91a1.3,1.3,0,0,0-.12.66c.07.09.18.08.3.1C2.44,5.37,2.22,5.21,2.24,4.91Z"/><path class="cls-22" d="M4.26,4.39c0,.19,0,.36,0,.55l.31,0C4.47,4.74,4.32,4.56,4.26,4.39Z"/><path class="cls-22" d="M3.23,4.64a2.31,2.31,0,0,0-.09.74l.31-.14C3.43,5,3.27,4.85,3.23,4.64Z"/><path class="cls-19" d="M4.43,1.12a.06.06,0,0,0-.09,0,.15.15,0,0,0,0,.18c0,.06.09.14.16.13h0a.07.07,0,0,0,.12-.05A.32.32,0,0,0,4.43,1.12Z"/><path class="cls-19" d="M5,1.54s0,.07,0,.07S5,1.54,5,1.54Z"/><path class="cls-19" d="M4.64,1.61l0-.07a.07.07,0,0,0-.13,0s0,.08,0,.1l0,0A.07.07,0,0,0,4.64,1.61Z"/><path class="cls-19" d="M4.78,1.26h0a.1.1,0,0,0-.09,0,.09.09,0,0,0,0,.11h0s.07,0,.07-.06A.08.08,0,0,0,4.78,1.26Z"/><path class="cls-19" d="M4.82,1.54a.06.06,0,0,0-.1,0,.08.08,0,0,0,0,.08s0,0,0,0,0,0,0,0v0s0,.05.07.06a.06.06,0,0,0,.08-.06A.53.53,0,0,0,4.82,1.54Z"/><path class="cls-19" d="M5.39,1.5a.09.09,0,0,0-.09.05s0,0,0,0a.06.06,0,0,0,0,.07.37.37,0,0,0,.5.26.09.09,0,0,0,0-.08A.41.41,0,0,0,5.39,1.5Z"/><path class="cls-19" d="M5.12,1.73h0a.09.09,0,0,0-.11,0,.1.1,0,0,0-.07.09.1.1,0,0,0,.18,0h0A.08.08,0,0,0,5.12,1.73Z"/><path class="cls-19" d="M4,.75a.1.1,0,0,0-.09.06v0h0v0a.22.22,0,0,0,0,.16A.28.28,0,0,0,4,1.21a.1.1,0,0,0,.13,0C4.25,1,4.17.75,4,.75Z"/><path class="cls-19" d="M3.79.69A.18.18,0,0,0,3.71.62h0a.05.05,0,0,0-.08,0v0a.29.29,0,0,0,.05.13.06.06,0,0,0,.1,0A.15.15,0,0,0,3.79.69Z"/><path class="cls-19" d="M5.21,1.37A.21.21,0,0,0,5,1.24S5,1.3,5,1.32l0,0s0,0,0,0l.09.05A.05.05,0,0,0,5.21,1.37Z"/><path class="cls-19" d="M5.35,1.92a.06.06,0,0,0,0,.12C5.42,2,5.42,1.92,5.35,1.92Z"/><path class="cls-19" d="M6,2.16A.17.17,0,0,0,5.85,2a.11.11,0,0,0-.14,0,.06.06,0,0,0,0,0h0a.2.2,0,0,0,.08.1.11.11,0,0,0,.13,0S6,2.18,6,2.16Z"/><path class="cls-19" d="M6,1.87A.07.07,0,1,0,6,2,.07.07,0,0,0,6,1.87Z"/><path class="cls-19" d="M6.3,2.14a.06.06,0,0,0-.08.06v0a.27.27,0,0,0,.14.26.06.06,0,0,0,.09,0A.25.25,0,0,0,6.3,2.14Z"/><path class="cls-19" d="M11.67,2.34a.17.17,0,0,0-.16.06s0,.07,0,.05a.1.1,0,0,1,0,.12l-.15.12-.1.09a2.16,2.16,0,0,0-.24.35c-.06.12-.17.21-.22.33a2.79,2.79,0,0,1-.07.38,3.06,3.06,0,0,0-.17.48,1,1,0,0,0-.08.78s0,0,0,0,0-.32.06-.47.15-.29.19-.44,0-.17,0-.26a1.42,1.42,0,0,0,.12-.25c.05-.18-.25.3.05-.28,0,0,.06-.06.08-.1a3.12,3.12,0,0,1,.29-.45c.14-.15.34-.25.37-.47A0,0,0,0,0,11.67,2.34Z"/><path class="cls-19" d="M10.53,5.22a6,6,0,0,0-.81-.86,4,4,0,0,0-.9-.74s0,0,0,0c.28.29.6.54.89.83a7.37,7.37,0,0,0,.79.79S10.55,5.23,10.53,5.22Z"/><path class="cls-19" d="M9.61,7.19a1.16,1.16,0,0,0-1.22.42h0A1.72,1.72,0,0,1,9,7.27a5.27,5.27,0,0,0,.57,0S9.63,7.19,9.61,7.19Z"/><path class="cls-19" d="M11.78,12.57c-.24-.54-.74-.87-1-1.35s-.2-1-.51-1.4c-.13-.18-.33-.28-.48-.45s-.17-.66-.21-1a1.62,1.62,0,0,0-.59-1s0,0,0,0c.11.21.27.38.37.6a2.14,2.14,0,0,1,.12.87,1.14,1.14,0,0,0,.17.54c.15.21.4.33.55.54.28.4.23.95.49,1.36a4,4,0,0,0,.44.48,7.08,7.08,0,0,1,.65.82S11.79,12.59,11.78,12.57Z"/><path class="cls-19" d="M10.93,9.17a1.7,1.7,0,0,1-.24-.44.63.63,0,0,0-.12-.23c-.36-.42-.41-.92-1-1.14h0a1.88,1.88,0,0,1,.56.66,1.94,1.94,0,0,0,.22.43l.09.09a.45.45,0,0,1,.14.31,1.3,1.3,0,0,0,.08.17,1.59,1.59,0,0,1,.3.5h0A.43.43,0,0,0,10.93,9.17Z"/><path class="cls-19" d="M16.07,12.16a3.6,3.6,0,0,1-1.2-1.37,4.55,4.55,0,0,0-.53-1.26,1.05,1.05,0,0,0-1.06-.41,9.07,9.07,0,0,0-1,.21c-.38.1-.77.14-1.16.23,0,0,0,0,0,0A5.62,5.62,0,0,0,13,9.28a1.41,1.41,0,0,1,1,.08,1.42,1.42,0,0,1,.43.57c.18.4.26.85.47,1.24A3.19,3.19,0,0,0,16,12.24.05.05,0,0,0,16.07,12.16Z"/><path class="cls-19" d="M13.53,7.87a1.77,1.77,0,0,1-.31.15.86.86,0,0,1-.17,0H13a0,0,0,0,0,0,0c0,.08.2,0,.26,0L13.49,8a1.17,1.17,0,0,0,0,.27s.07,0,.07,0a1,1,0,0,1,0-.34S13.56,7.86,13.53,7.87Z"/><path class="cls-19" d="M6.82,2.36a.13.13,0,0,0-.14.08.37.37,0,0,0,0,.27.19.19,0,0,0,0,.07c0,.12.14.24.27.17S7,2.4,6.82,2.36Z"/><path class="cls-19" d="M7.08,3.14h0a0,0,0,0,0,0,0H7a.07.07,0,1,0,0,.05Z"/><path class="cls-19" d="M6.55,2.21a.08.08,0,0,0,0,.16A.08.08,0,0,0,6.55,2.21Z"/><path class="cls-19" d="M15.35,8.42a.15.15,0,0,0-.14-.15.36.36,0,0,0-.3.15.36.36,0,0,0,0,.2.22.22,0,0,0,0,.1.26.26,0,0,0,.27.32C15.35,9,15.36,8.6,15.35,8.42Z"/><circle class="cls-19" cx="15.04" cy="9.45" r="0.09"/><path class="cls-19" d="M15.6,7.58a.28.28,0,0,0-.18,0,.16.16,0,0,0-.07.18.09.09,0,0,0,.06.15.33.33,0,0,0,.17-.07.29.29,0,0,0,.08-.13A.1.1,0,0,0,15.6,7.58Z"/><path class="cls-19" d="M15.51,8.22a.09.09,0,0,0-.07.13h0a.08.08,0,0,0,.14,0h0A.09.09,0,0,0,15.51,8.22Z"/><path class="cls-19" d="M14.64,9.08a.1.1,0,0,0-.09.1.08.08,0,0,0,.09.09.11.11,0,0,0,.13-.09C14.77,9.12,14.7,9.08,14.64,9.08Z"/><path class="cls-23" d="M16,7.23a.1.1,0,0,0,0-.05.09.09,0,0,0-.13.07.14.14,0,0,0,0,.06.06.06,0,0,0,.07,0A.07.07,0,0,0,16,7.23Z"/><path class="cls-23" d="M15.13,10.09A.1.1,0,0,0,15,10a.14.14,0,0,0-.1.21.32.32,0,0,0,.1.34.09.09,0,0,0,.15,0A.93.93,0,0,0,15.13,10.09Z"/><path class="cls-23" d="M15.21,9.92a.06.06,0,1,0,0,.12A.06.06,0,0,0,15.21,9.92Z"/><path class="cls-23" d="M14.86,9.85v0a0,0,0,0,0-.08,0v0a.06.06,0,1,0,.1,0Z"/></g></g></g></svg>